<?xml version="1.0" encoding="UTF-8" standalone="no"?>
<!DOCTYPE svg PUBLIC "-//W3C//DTD SVG 1.1//EN"
 "http://www.w3.org/Graphics/SVG/1.1/DTD/svg11.dtd">
<!-- Generated by graphviz version 2.50.0 (0)
 -->
<!-- Pages: 1 -->
<svg width="147pt" height="188pt"
 viewBox="0.00 0.00 146.89 188.00" xmlns="http://www.w3.org/2000/svg" xmlns:xlink="http://www.w3.org/1999/xlink">
<g id="graph0" class="graph" transform="scale(1 1) rotate(0) translate(4 184)">
<polygon fill="white" stroke="transparent" points="-4,4 -4,-184 142.89,-184 142.89,4 -4,4"/>
<!-- U -->
<g id="node1" class="node">
<title>U</title>
<ellipse fill="none" stroke="black" cx="47.89" cy="-162" rx="27" ry="18"/>
<text text-anchor="middle" x="47.89" y="-158.3" font-family="Times New Roman,serif" font-size="14.00">U</text>
</g>
<!-- T -->
<g id="node2" class="node">
<title>T</title>
<ellipse fill="none" stroke="black" cx="111.89" cy="-90" rx="27" ry="18"/>
<text text-anchor="middle" x="111.89" y="-86.3" font-family="Times New Roman,serif" font-size="14.00">T</text>
</g>
<!-- U&#45;&gt;T -->
<g id="edge1" class="edge">
<title>U&#45;&gt;T</title>
<path fill="none" stroke="black" d="M61.46,-146.15C70.2,-136.6 81.73,-123.99 91.55,-113.25"/>
<polygon fill="black" stroke="black" points="94.17,-115.57 98.34,-105.82 89.01,-110.84 94.17,-115.57"/>
</g>
<!-- Y -->
<g id="node4" class="node">
<title>Y</title>
<ellipse fill="none" stroke="black" cx="39.89" cy="-18" rx="27" ry="18"/>
<text text-anchor="middle" x="39.89" y="-14.3" font-family="Times New Roman,serif" font-size="14.00">Y</text>
</g>
<!-- U&#45;&gt;Y -->
<g id="edge3" class="edge">
<title>U&#45;&gt;Y</title>
<path fill="none" stroke="black" d="M31.59,-147.07C21.49,-137.3 9.41,-123.3 3.89,-108 -1.54,-92.95 -0.81,-87.29 3.89,-72 7.18,-61.31 13.43,-50.85 19.82,-42.08"/>
<polygon fill="black" stroke="black" points="22.78,-43.98 26.14,-33.93 17.25,-39.69 22.78,-43.98"/>
</g>
<!-- T&#45;&gt;Y -->
<g id="edge4" class="edge">
<title>T&#45;&gt;Y</title>
<path fill="none" stroke="black" d="M97.32,-74.83C87.14,-64.94 73.37,-51.55 61.86,-40.36"/>
<polygon fill="black" stroke="black" points="64.3,-37.85 54.69,-33.38 59.42,-42.87 64.3,-37.85"/>
</g>
<!-- Z -->
<g id="node5" class="node">
<title>Z</title>
<ellipse fill="none" stroke="black" cx="111.89" cy="-18" rx="27" ry="18"/>
<text text-anchor="middle" x="111.89" y="-14.3" font-family="Times New Roman,serif" font-size="14.00">Z</text>
</g>
<!-- T&#45;&gt;Z -->
<g id="edge5" class="edge">
<title>T&#45;&gt;Z</title>
<path fill="none" stroke="black" d="M111.89,-71.7C111.89,-63.98 111.89,-54.71 111.89,-46.11"/>
<polygon fill="black" stroke="black" points="115.39,-46.1 111.89,-36.1 108.39,-46.1 115.39,-46.1"/>
</g>
<!-- X -->
<g id="node3" class="node">
<title>X</title>
<ellipse fill="none" stroke="black" cx="39.89" cy="-90" rx="27" ry="18"/>
<text text-anchor="middle" x="39.89" y="-86.3" font-family="Times New Roman,serif" font-size="14.00">X</text>
</g>
<!-- X&#45;&gt;Y -->
<g id="edge2" class="edge">
<title>X&#45;&gt;Y</title>
<path fill="none" stroke="black" d="M39.89,-71.7C39.89,-63.98 39.89,-54.71 39.89,-46.11"/>
<polygon fill="black" stroke="black" points="43.39,-46.1 39.89,-36.1 36.39,-46.1 43.39,-46.1"/>
</g>
</g>
</svg>
