<?xml version="1.0" encoding="UTF-8" standalone="no"?>
<!DOCTYPE svg PUBLIC "-//W3C//DTD SVG 1.1//EN"
 "http://www.w3.org/Graphics/SVG/1.1/DTD/svg11.dtd">
<!-- Generated by graphviz version 2.50.0 (0)
 -->
<!-- Pages: 1 -->
<svg width="164pt" height="188pt"
 viewBox="0.00 0.00 163.89 188.00" xmlns="http://www.w3.org/2000/svg" xmlns:xlink="http://www.w3.org/1999/xlink">
<g id="graph0" class="graph" transform="scale(1 1) rotate(0) translate(4 184)">
<polygon fill="white" stroke="transparent" points="-4,4 -4,-184 159.89,-184 159.89,4 -4,4"/>
<!-- Education -->
<g id="node1" class="node">
<title>Education</title>
<ellipse fill="none" stroke="black" cx="46.15" cy="-90" rx="46.29" ry="18"/>
<text text-anchor="middle" x="46.15" y="-86.3" font-family="Times New Roman,serif" font-size="14.00">Education</text>
</g>
<!-- Earnings -->
<g id="node2" class="node">
<title>Earnings</title>
<ellipse fill="none" stroke="black" cx="83.15" cy="-18" rx="42.49" ry="18"/>
<text text-anchor="middle" x="83.15" y="-14.3" font-family="Times New Roman,serif" font-size="14.00">Earnings</text>
</g>
<!-- Education&#45;&gt;Earnings -->
<g id="edge1" class="edge">
<title>Education&#45;&gt;Earnings</title>
<path fill="none" stroke="black" stroke-dasharray="5,2" d="M55.1,-72.05C59.42,-63.89 64.69,-53.91 69.5,-44.82"/>
<polygon fill="black" stroke="black" points="72.69,-46.27 74.27,-35.79 66.5,-42.99 72.69,-46.27"/>
</g>
<!-- Ability -->
<g id="node3" class="node">
<title>Ability</title>
<ellipse fill="none" stroke="black" cx="120.15" cy="-162" rx="36" ry="18"/>
<text text-anchor="middle" x="120.15" y="-158.3" font-family="Times New Roman,serif" font-size="14.00">Ability</text>
</g>
<!-- Ability&#45;&gt;Education -->
<g id="edge2" class="edge">
<title>Ability&#45;&gt;Education</title>
<path fill="none" stroke="black" d="M104.09,-145.81C94.21,-136.47 81.36,-124.31 70.28,-113.83"/>
<polygon fill="black" stroke="black" points="72.61,-111.22 62.94,-106.89 67.8,-116.3 72.61,-111.22"/>
</g>
<!-- Ability&#45;&gt;Earnings -->
<g id="edge3" class="edge">
<title>Ability&#45;&gt;Earnings</title>
<path fill="none" stroke="black" d="M117.09,-143.79C113.75,-125.76 107.94,-96.68 101.15,-72 98.76,-63.34 95.75,-54.03 92.88,-45.66"/>
<polygon fill="black" stroke="black" points="96.11,-44.3 89.5,-36.03 89.51,-46.62 96.11,-44.3"/>
</g>
<!-- ? -->
<g id="node4" class="node">
<title>?</title>
<ellipse fill="none" stroke="black" cx="39.15" cy="-162" rx="27" ry="18"/>
<text text-anchor="middle" x="39.15" y="-158.3" font-family="Times New Roman,serif" font-size="14.00">?</text>
</g>
<!-- ?&#45;&gt;Education -->
<g id="edge4" class="edge">
<title>?&#45;&gt;Education</title>
<path fill="none" stroke="black" d="M40.88,-143.7C41.65,-135.98 42.57,-126.71 43.43,-118.11"/>
<polygon fill="black" stroke="black" points="46.92,-118.4 44.44,-108.1 39.96,-117.71 46.92,-118.4"/>
</g>
</g>
</svg>
