<?xml version="1.0" encoding="UTF-8" standalone="no"?>
<!DOCTYPE svg PUBLIC "-//W3C//DTD SVG 1.1//EN"
 "http://www.w3.org/Graphics/SVG/1.1/DTD/svg11.dtd">
<!-- Generated by graphviz version 2.50.0 (0)
 -->
<!-- Pages: 1 -->
<svg width="134pt" height="188pt"
 viewBox="0.00 0.00 134.00 188.00" xmlns="http://www.w3.org/2000/svg" xmlns:xlink="http://www.w3.org/1999/xlink">
<g id="graph0" class="graph" transform="scale(1 1) rotate(0) translate(4 184)">
<polygon fill="white" stroke="transparent" points="-4,4 -4,-184 130,-184 130,4 -4,4"/>
<!-- T -->
<g id="node1" class="node">
<title>T</title>
<ellipse fill="none" stroke="black" cx="44" cy="-90" rx="27" ry="18"/>
<text text-anchor="middle" x="44" y="-86.3" font-family="Times New Roman,serif" font-size="14.00">T</text>
</g>
<!-- Y -->
<g id="node2" class="node">
<title>Y</title>
<ellipse fill="none" stroke="black" cx="71" cy="-18" rx="27" ry="18"/>
<text text-anchor="middle" x="71" y="-14.3" font-family="Times New Roman,serif" font-size="14.00">Y</text>
</g>
<!-- T&#45;&gt;Y -->
<g id="edge1" class="edge">
<title>T&#45;&gt;Y</title>
<path fill="none" stroke="black" stroke-dasharray="5,2" d="M50.4,-72.41C53.51,-64.34 57.33,-54.43 60.83,-45.35"/>
<polygon fill="black" stroke="black" points="64.13,-46.55 64.46,-35.96 57.6,-44.03 64.13,-46.55"/>
</g>
<!-- C -->
<g id="node3" class="node">
<title>C</title>
<ellipse fill="none" stroke="black" cx="99" cy="-162" rx="27" ry="18"/>
<text text-anchor="middle" x="99" y="-158.3" font-family="Times New Roman,serif" font-size="14.00">C</text>
</g>
<!-- C&#45;&gt;T -->
<g id="edge2" class="edge">
<title>C&#45;&gt;T</title>
<path fill="none" stroke="black" d="M87.07,-145.81C79.79,-136.55 70.34,-124.52 62.15,-114.09"/>
<polygon fill="black" stroke="black" points="64.84,-111.86 55.91,-106.16 59.34,-116.18 64.84,-111.86"/>
</g>
<!-- C&#45;&gt;Y -->
<g id="edge3" class="edge">
<title>C&#45;&gt;Y</title>
<path fill="none" stroke="black" d="M95.62,-143.87C90.83,-119.56 82.01,-74.82 76.33,-46.01"/>
<polygon fill="black" stroke="black" points="79.76,-45.32 74.39,-36.19 72.89,-46.68 79.76,-45.32"/>
</g>
<!-- R -->
<g id="node4" class="node">
<title>R</title>
<ellipse fill="none" stroke="black" cx="27" cy="-162" rx="27" ry="18"/>
<text text-anchor="middle" x="27" y="-158.3" font-family="Times New Roman,serif" font-size="14.00">R</text>
</g>
<!-- R&#45;&gt;T -->
<g id="edge4" class="edge">
<title>R&#45;&gt;T</title>
<path fill="none" stroke="black" d="M31.12,-144.05C33.01,-136.26 35.3,-126.82 37.42,-118.08"/>
<polygon fill="black" stroke="black" points="40.85,-118.82 39.8,-108.28 34.04,-117.17 40.85,-118.82"/>
</g>
</g>
</svg>
