<?xml version="1.0" encoding="UTF-8" standalone="no"?>
<!DOCTYPE svg PUBLIC "-//W3C//DTD SVG 1.1//EN"
 "http://www.w3.org/Graphics/SVG/1.1/DTD/svg11.dtd">
<!-- Generated by graphviz version 2.50.0 (0)
 -->
<!-- Pages: 1 -->
<svg width="232pt" height="188pt"
 viewBox="0.00 0.00 232.34 188.00" xmlns="http://www.w3.org/2000/svg" xmlns:xlink="http://www.w3.org/1999/xlink">
<g id="graph0" class="graph" transform="scale(1 1) rotate(0) translate(4 184)">
<polygon fill="white" stroke="transparent" points="-4,4 -4,-184 228.34,-184 228.34,4 -4,4"/>
<!-- Education -->
<g id="node1" class="node">
<title>Education</title>
<ellipse fill="none" stroke="black" cx="114.59" cy="-90" rx="46.29" ry="18"/>
<text text-anchor="middle" x="114.59" y="-86.3" font-family="Times New Roman,serif" font-size="14.00">Education</text>
</g>
<!-- Earnings -->
<g id="node2" class="node">
<title>Earnings</title>
<ellipse fill="none" stroke="black" cx="151.59" cy="-18" rx="42.49" ry="18"/>
<text text-anchor="middle" x="151.59" y="-14.3" font-family="Times New Roman,serif" font-size="14.00">Earnings</text>
</g>
<!-- Education&#45;&gt;Earnings -->
<g id="edge1" class="edge">
<title>Education&#45;&gt;Earnings</title>
<path fill="none" stroke="black" stroke-dasharray="5,2" d="M123.55,-72.05C127.87,-63.89 133.14,-53.91 137.94,-44.82"/>
<polygon fill="black" stroke="black" points="141.14,-46.27 142.72,-35.79 134.95,-42.99 141.14,-46.27"/>
</g>
<!-- Ability -->
<g id="node3" class="node">
<title>Ability</title>
<ellipse fill="none" stroke="black" cx="188.59" cy="-162" rx="36" ry="18"/>
<text text-anchor="middle" x="188.59" y="-158.3" font-family="Times New Roman,serif" font-size="14.00">Ability</text>
</g>
<!-- Ability&#45;&gt;Education -->
<g id="edge2" class="edge">
<title>Ability&#45;&gt;Education</title>
<path fill="none" stroke="black" d="M172.54,-145.81C162.66,-136.47 149.81,-124.31 138.73,-113.83"/>
<polygon fill="black" stroke="black" points="141.06,-111.22 131.39,-106.89 136.25,-116.3 141.06,-111.22"/>
</g>
<!-- Ability&#45;&gt;Earnings -->
<g id="edge3" class="edge">
<title>Ability&#45;&gt;Earnings</title>
<path fill="none" stroke="black" d="M185.54,-143.79C182.2,-125.76 176.39,-96.68 169.59,-72 167.21,-63.34 164.2,-54.03 161.33,-45.66"/>
<polygon fill="black" stroke="black" points="164.56,-44.3 157.94,-36.03 157.96,-46.62 164.56,-44.3"/>
</g>
<!-- Quarter of Birth -->
<g id="node4" class="node">
<title>Quarter of Birth</title>
<ellipse fill="none" stroke="black" cx="67.59" cy="-162" rx="67.69" ry="18"/>
<text text-anchor="middle" x="67.59" y="-158.3" font-family="Times New Roman,serif" font-size="14.00">Quarter of Birth</text>
</g>
<!-- Quarter of Birth&#45;&gt;Education -->
<g id="edge4" class="edge">
<title>Quarter of Birth&#45;&gt;Education</title>
<path fill="none" stroke="black" d="M78.97,-144.05C84.57,-135.71 91.44,-125.49 97.64,-116.25"/>
<polygon fill="black" stroke="black" points="100.65,-118.04 103.32,-107.79 94.84,-114.14 100.65,-118.04"/>
</g>
</g>
</svg>
