<?xml version="1.0" encoding="UTF-8" standalone="no"?>
<!DOCTYPE svg PUBLIC "-//W3C//DTD SVG 1.1//EN"
 "http://www.w3.org/Graphics/SVG/1.1/DTD/svg11.dtd">
<!-- Generated by graphviz version 2.50.0 (0)
 -->
<!-- Pages: 1 -->
<svg width="640pt" height="332pt"
 viewBox="0.00 0.00 639.81 332.00" xmlns="http://www.w3.org/2000/svg" xmlns:xlink="http://www.w3.org/1999/xlink">
<g id="graph0" class="graph" transform="scale(1 1) rotate(0) translate(4 328)">
<polygon fill="white" stroke="transparent" points="-4,4 -4,-328 635.81,-328 635.81,4 -4,4"/>
<!-- OnlineClass -->
<g id="node1" class="node">
<title>OnlineClass</title>
<ellipse fill="none" stroke="black" cx="235.76" cy="-90" rx="53.89" ry="18"/>
<text text-anchor="middle" x="235.76" y="-86.3" font-family="Times New Roman,serif" font-size="14.00">OnlineClass</text>
</g>
<!-- Dropout -->
<g id="node2" class="node">
<title>Dropout</title>
<ellipse fill="none" stroke="black" cx="354.76" cy="-18" rx="40.09" ry="18"/>
<text text-anchor="middle" x="354.76" y="-14.3" font-family="Times New Roman,serif" font-size="14.00">Dropout</text>
</g>
<!-- OnlineClass&#45;&gt;Dropout -->
<g id="edge1" class="edge">
<title>OnlineClass&#45;&gt;Dropout</title>
<path fill="none" stroke="black" stroke-dasharray="5,2" d="M261.29,-73.98C279.21,-63.44 303.32,-49.26 322.56,-37.94"/>
<polygon fill="black" stroke="black" points="324.45,-40.89 331.29,-32.8 320.9,-34.86 324.45,-40.89"/>
</g>
<!-- AvailableTime -->
<g id="node3" class="node">
<title>AvailableTime</title>
<ellipse fill="none" stroke="black" cx="414.76" cy="-162" rx="63.89" ry="18"/>
<text text-anchor="middle" x="414.76" y="-158.3" font-family="Times New Roman,serif" font-size="14.00">AvailableTime</text>
</g>
<!-- AvailableTime&#45;&gt;OnlineClass -->
<g id="edge7" class="edge">
<title>AvailableTime&#45;&gt;OnlineClass</title>
<path fill="none" stroke="black" d="M378.97,-147C350.15,-135.73 309.55,-119.86 278.93,-107.88"/>
<polygon fill="black" stroke="black" points="279.96,-104.53 269.37,-104.14 277.41,-111.05 279.96,-104.53"/>
</g>
<!-- AvailableTime&#45;&gt;Dropout -->
<g id="edge2" class="edge">
<title>AvailableTime&#45;&gt;Dropout</title>
<path fill="none" stroke="black" d="M407.52,-143.87C397.15,-119.33 377.97,-73.94 365.82,-45.17"/>
<polygon fill="black" stroke="black" points="368.95,-43.6 361.84,-35.75 362.5,-46.32 368.95,-43.6"/>
</g>
<!-- Age -->
<g id="node4" class="node">
<title>Age</title>
<ellipse fill="none" stroke="black" cx="51.76" cy="-306" rx="27" ry="18"/>
<text text-anchor="middle" x="51.76" y="-302.3" font-family="Times New Roman,serif" font-size="14.00">Age</text>
</g>
<!-- Age&#45;&gt;Dropout -->
<g id="edge3" class="edge">
<title>Age&#45;&gt;Dropout</title>
<path fill="none" stroke="black" d="M35.46,-291.07C25.36,-281.3 13.28,-267.3 7.76,-252 -9.16,-205.14 4.25,-180.86 37.76,-144 109.2,-65.41 236.35,-35.57 305.93,-24.76"/>
<polygon fill="black" stroke="black" points="306.8,-28.17 316.18,-23.24 305.77,-21.25 306.8,-28.17"/>
</g>
<!-- Age&#45;&gt;AvailableTime -->
<g id="edge10" class="edge">
<title>Age&#45;&gt;AvailableTime</title>
<path fill="none" stroke="black" d="M77.9,-301.09C119.02,-294.38 200.81,-278.74 265.76,-252 309.19,-234.12 354.97,-205.02 384.14,-184.99"/>
<polygon fill="black" stroke="black" points="386.42,-187.66 392.64,-179.08 382.43,-181.91 386.42,-187.66"/>
</g>
<!-- Preferences -->
<g id="node9" class="node">
<title>Preferences</title>
<ellipse fill="none" stroke="black" cx="98.76" cy="-162" rx="51.99" ry="18"/>
<text text-anchor="middle" x="98.76" y="-158.3" font-family="Times New Roman,serif" font-size="14.00">Preferences</text>
</g>
<!-- Age&#45;&gt;Preferences -->
<g id="edge11" class="edge">
<title>Age&#45;&gt;Preferences</title>
<path fill="none" stroke="black" d="M37.96,-290.35C22.73,-272.31 2.06,-241 15.76,-216 24.41,-200.21 40,-188.44 55.34,-180.06"/>
<polygon fill="black" stroke="black" points="56.97,-183.16 64.3,-175.51 53.79,-176.92 56.97,-183.16"/>
</g>
<!-- SES -->
<g id="node11" class="node">
<title>SES</title>
<ellipse fill="none" stroke="black" cx="51.76" cy="-234" rx="27" ry="18"/>
<text text-anchor="middle" x="51.76" y="-230.3" font-family="Times New Roman,serif" font-size="14.00">SES</text>
</g>
<!-- Age&#45;&gt;SES -->
<g id="edge15" class="edge">
<title>Age&#45;&gt;SES</title>
<path fill="none" stroke="black" d="M51.76,-287.7C51.76,-279.98 51.76,-270.71 51.76,-262.11"/>
<polygon fill="black" stroke="black" points="55.26,-262.1 51.76,-252.1 48.26,-262.1 55.26,-262.1"/>
</g>
<!-- WorkHours -->
<g id="node12" class="node">
<title>WorkHours</title>
<ellipse fill="none" stroke="black" cx="440.76" cy="-234" rx="51.99" ry="18"/>
<text text-anchor="middle" x="440.76" y="-230.3" font-family="Times New Roman,serif" font-size="14.00">WorkHours</text>
</g>
<!-- Age&#45;&gt;WorkHours -->
<g id="edge16" class="edge">
<title>Age&#45;&gt;WorkHours</title>
<path fill="none" stroke="black" d="M77.58,-300.35C140.04,-289.11 300.36,-260.26 385.58,-244.93"/>
<polygon fill="black" stroke="black" points="386.37,-248.34 395.59,-243.13 385.13,-241.45 386.37,-248.34"/>
</g>
<!-- Gender -->
<g id="node5" class="node">
<title>Gender</title>
<ellipse fill="none" stroke="black" cx="339.76" cy="-306" rx="36.29" ry="18"/>
<text text-anchor="middle" x="339.76" y="-302.3" font-family="Times New Roman,serif" font-size="14.00">Gender</text>
</g>
<!-- Gender&#45;&gt;Dropout -->
<g id="edge4" class="edge">
<title>Gender&#45;&gt;Dropout</title>
<path fill="none" stroke="black" d="M339.46,-287.59C339.06,-258.04 338.73,-196.19 341.76,-144 343.72,-110.27 348.07,-71.6 351.19,-46.31"/>
<polygon fill="black" stroke="black" points="354.67,-46.71 352.45,-36.35 347.73,-45.83 354.67,-46.71"/>
</g>
<!-- Gender&#45;&gt;AvailableTime -->
<g id="edge23" class="edge">
<title>Gender&#45;&gt;AvailableTime</title>
<path fill="none" stroke="black" d="M346.36,-288.21C353.72,-270.02 366.37,-240.34 379.76,-216 384.89,-206.68 391.12,-196.86 396.9,-188.23"/>
<polygon fill="black" stroke="black" points="399.94,-189.98 402.69,-179.75 394.16,-186.04 399.94,-189.98"/>
</g>
<!-- Gender&#45;&gt;Preferences -->
<g id="edge12" class="edge">
<title>Gender&#45;&gt;Preferences</title>
<path fill="none" stroke="black" d="M303.22,-305.62C257.3,-304.43 178.71,-295.52 130.76,-252 113.24,-236.1 105.3,-209.9 101.71,-190.03"/>
<polygon fill="black" stroke="black" points="105.15,-189.38 100.17,-180.03 98.24,-190.45 105.15,-189.38"/>
</g>
<!-- Gender&#45;&gt;WorkHours -->
<g id="edge21" class="edge">
<title>Gender&#45;&gt;WorkHours</title>
<path fill="none" stroke="black" d="M360.2,-290.83C374.5,-280.92 393.85,-267.51 410.01,-256.31"/>
<polygon fill="black" stroke="black" points="412.37,-258.93 418.6,-250.36 408.39,-253.18 412.37,-258.93"/>
</g>
<!-- Race -->
<g id="node6" class="node">
<title>Race</title>
<ellipse fill="none" stroke="black" cx="455.76" cy="-306" rx="28.7" ry="18"/>
<text text-anchor="middle" x="455.76" y="-302.3" font-family="Times New Roman,serif" font-size="14.00">Race</text>
</g>
<!-- Race&#45;&gt;Dropout -->
<g id="edge5" class="edge">
<title>Race&#45;&gt;Dropout</title>
<path fill="none" stroke="black" d="M476.69,-293.7C491.19,-284.57 509.35,-270.26 517.76,-252 524.46,-237.47 520.9,-231.69 517.76,-216 510.96,-182.01 507.49,-172.5 487.76,-144 458.54,-101.79 413.04,-62.95 383.56,-40.11"/>
<polygon fill="black" stroke="black" points="385.41,-37.11 375.33,-33.83 381.16,-42.68 385.41,-37.11"/>
</g>
<!-- Race&#45;&gt;AvailableTime -->
<g id="edge22" class="edge">
<title>Race&#45;&gt;AvailableTime</title>
<path fill="none" stroke="black" d="M472.79,-291.21C483.34,-281.51 495.96,-267.52 501.76,-252 507.36,-237.01 509.6,-229.95 501.76,-216 493.07,-200.53 477.83,-189.05 462.51,-180.8"/>
<polygon fill="black" stroke="black" points="464.04,-177.65 453.53,-176.31 460.91,-183.91 464.04,-177.65"/>
</g>
<!-- Race&#45;&gt;Preferences -->
<g id="edge13" class="edge">
<title>Race&#45;&gt;Preferences</title>
<path fill="none" stroke="black" d="M429.56,-298.24C416.2,-294.92 399.67,-291 384.76,-288 287.19,-268.4 248.56,-304.08 163.76,-252 150.88,-244.09 129.13,-212.03 114.37,-188.65"/>
<polygon fill="black" stroke="black" points="117.16,-186.51 108.9,-179.88 111.22,-190.22 117.16,-186.51"/>
</g>
<!-- Race&#45;&gt;WorkHours -->
<g id="edge20" class="edge">
<title>Race&#45;&gt;WorkHours</title>
<path fill="none" stroke="black" d="M452.13,-288.05C450.46,-280.26 448.44,-270.82 446.56,-262.08"/>
<polygon fill="black" stroke="black" points="449.98,-261.32 444.46,-252.28 443.13,-262.79 449.98,-261.32"/>
</g>
<!-- Academics -->
<g id="node7" class="node">
<title>Academics</title>
<ellipse fill="none" stroke="black" cx="581.76" cy="-306" rx="50.09" ry="18"/>
<text text-anchor="middle" x="581.76" y="-302.3" font-family="Times New Roman,serif" font-size="14.00">Academics</text>
</g>
<!-- Academics&#45;&gt;Dropout -->
<g id="edge6" class="edge">
<title>Academics&#45;&gt;Dropout</title>
<path fill="none" stroke="black" d="M577.13,-287.82C564.68,-244.92 526.43,-132.23 453.76,-72 435.44,-56.82 412.09,-44.07 392.67,-34.88"/>
<polygon fill="black" stroke="black" points="394.04,-31.66 383.49,-30.66 391.12,-38.02 394.04,-31.66"/>
</g>
<!-- Academics&#45;&gt;WorkHours -->
<g id="edge19" class="edge">
<title>Academics&#45;&gt;WorkHours</title>
<path fill="none" stroke="black" d="M553.57,-291C532,-280.3 502.05,-265.43 478.43,-253.7"/>
<polygon fill="black" stroke="black" points="479.9,-250.52 469.39,-249.21 476.79,-256.79 479.9,-250.52"/>
</g>
<!-- InternetAccess -->
<g id="node8" class="node">
<title>InternetAccess</title>
<ellipse fill="none" stroke="black" cx="231.76" cy="-162" rx="63.09" ry="18"/>
<text text-anchor="middle" x="231.76" y="-158.3" font-family="Times New Roman,serif" font-size="14.00">InternetAccess</text>
</g>
<!-- InternetAccess&#45;&gt;OnlineClass -->
<g id="edge8" class="edge">
<title>InternetAccess&#45;&gt;OnlineClass</title>
<path fill="none" stroke="black" d="M232.75,-143.7C233.19,-135.98 233.72,-126.71 234.21,-118.11"/>
<polygon fill="black" stroke="black" points="237.71,-118.29 234.78,-108.1 230.72,-117.89 237.71,-118.29"/>
</g>
<!-- Preferences&#45;&gt;OnlineClass -->
<g id="edge9" class="edge">
<title>Preferences&#45;&gt;OnlineClass</title>
<path fill="none" stroke="black" d="M126.81,-146.67C147.46,-136.12 175.73,-121.67 198.3,-110.14"/>
<polygon fill="black" stroke="black" points="199.96,-113.22 207.27,-105.56 196.77,-106.99 199.96,-113.22"/>
</g>
<!-- Location -->
<g id="node10" class="node">
<title>Location</title>
<ellipse fill="none" stroke="black" cx="214.76" cy="-234" rx="42.49" ry="18"/>
<text text-anchor="middle" x="214.76" y="-230.3" font-family="Times New Roman,serif" font-size="14.00">Location</text>
</g>
<!-- Location&#45;&gt;InternetAccess -->
<g id="edge14" class="edge">
<title>Location&#45;&gt;InternetAccess</title>
<path fill="none" stroke="black" d="M218.87,-216.05C220.77,-208.26 223.06,-198.82 225.18,-190.08"/>
<polygon fill="black" stroke="black" points="228.61,-190.82 227.56,-180.28 221.8,-189.17 228.61,-190.82"/>
</g>
<!-- SES&#45;&gt;Preferences -->
<g id="edge17" class="edge">
<title>SES&#45;&gt;Preferences</title>
<path fill="none" stroke="black" d="M62.42,-217.12C68.15,-208.59 75.34,-197.89 81.81,-188.25"/>
<polygon fill="black" stroke="black" points="84.81,-190.05 87.48,-179.8 79,-186.15 84.81,-190.05"/>
</g>
<!-- WorkHours&#45;&gt;AvailableTime -->
<g id="edge18" class="edge">
<title>WorkHours&#45;&gt;AvailableTime</title>
<path fill="none" stroke="black" d="M434.47,-216.05C431.54,-208.18 427.99,-198.62 424.71,-189.79"/>
<polygon fill="black" stroke="black" points="427.94,-188.43 421.18,-180.28 421.38,-190.87 427.94,-188.43"/>
</g>
</g>
</svg>
