<?xml version="1.0" encoding="UTF-8" standalone="no"?>
<!DOCTYPE svg PUBLIC "-//W3C//DTD SVG 1.1//EN"
 "http://www.w3.org/Graphics/SVG/1.1/DTD/svg11.dtd">
<!-- Generated by graphviz version 2.50.0 (0)
 -->
<!-- Pages: 1 -->
<svg width="510pt" height="188pt"
 viewBox="0.00 0.00 509.99 188.00" xmlns="http://www.w3.org/2000/svg" xmlns:xlink="http://www.w3.org/1999/xlink">
<g id="graph0" class="graph" transform="scale(1 1) rotate(0) translate(4 184)">
<polygon fill="white" stroke="transparent" points="-4,4 -4,-184 505.99,-184 505.99,4 -4,4"/>
<!-- OnlineClass -->
<g id="node1" class="node">
<title>OnlineClass</title>
<ellipse fill="none" stroke="black" cx="53.95" cy="-90" rx="53.89" ry="18"/>
<text text-anchor="middle" x="53.95" y="-86.3" font-family="Times New Roman,serif" font-size="14.00">OnlineClass</text>
</g>
<!-- Dropout -->
<g id="node2" class="node">
<title>Dropout</title>
<ellipse fill="none" stroke="black" cx="230.95" cy="-18" rx="40.09" ry="18"/>
<text text-anchor="middle" x="230.95" y="-14.3" font-family="Times New Roman,serif" font-size="14.00">Dropout</text>
</g>
<!-- OnlineClass&#45;&gt;Dropout -->
<g id="edge1" class="edge">
<title>OnlineClass&#45;&gt;Dropout</title>
<path fill="none" stroke="black" stroke-dasharray="5,2" d="M87.24,-75.83C117.19,-63.99 161.18,-46.59 192.59,-34.17"/>
<polygon fill="black" stroke="black" points="193.89,-37.42 201.91,-30.48 191.32,-30.91 193.89,-37.42"/>
</g>
<!-- AvailableTime -->
<g id="node3" class="node">
<title>AvailableTime</title>
<ellipse fill="none" stroke="black" cx="94.95" cy="-162" rx="63.89" ry="18"/>
<text text-anchor="middle" x="94.95" y="-158.3" font-family="Times New Roman,serif" font-size="14.00">AvailableTime</text>
</g>
<!-- AvailableTime&#45;&gt;OnlineClass -->
<g id="edge7" class="edge">
<title>AvailableTime&#45;&gt;OnlineClass</title>
<path fill="none" stroke="black" d="M85.02,-144.05C80.19,-135.8 74.27,-125.7 68.9,-116.54"/>
<polygon fill="black" stroke="black" points="71.85,-114.65 63.78,-107.79 65.81,-118.19 71.85,-114.65"/>
</g>
<!-- AvailableTime&#45;&gt;Dropout -->
<g id="edge2" class="edge">
<title>AvailableTime&#45;&gt;Dropout</title>
<path fill="none" stroke="black" d="M103.93,-143.91C114.46,-124.92 133.25,-94.05 154.95,-72 167.75,-58.99 184.13,-47.11 198.4,-37.9"/>
<polygon fill="black" stroke="black" points="200.36,-40.81 206.97,-32.53 196.64,-34.88 200.36,-40.81"/>
</g>
<!-- Age -->
<g id="node4" class="node">
<title>Age</title>
<ellipse fill="none" stroke="black" cx="190.95" cy="-90" rx="27" ry="18"/>
<text text-anchor="middle" x="190.95" y="-86.3" font-family="Times New Roman,serif" font-size="14.00">Age</text>
</g>
<!-- Age&#45;&gt;Dropout -->
<g id="edge3" class="edge">
<title>Age&#45;&gt;Dropout</title>
<path fill="none" stroke="black" d="M200.22,-72.76C205,-64.4 210.94,-54.02 216.31,-44.61"/>
<polygon fill="black" stroke="black" points="219.52,-46.05 221.44,-35.63 213.44,-42.58 219.52,-46.05"/>
</g>
<!-- Gender -->
<g id="node5" class="node">
<title>Gender</title>
<ellipse fill="none" stroke="black" cx="271.95" cy="-90" rx="36.29" ry="18"/>
<text text-anchor="middle" x="271.95" y="-86.3" font-family="Times New Roman,serif" font-size="14.00">Gender</text>
</g>
<!-- Gender&#45;&gt;Dropout -->
<g id="edge4" class="edge">
<title>Gender&#45;&gt;Dropout</title>
<path fill="none" stroke="black" d="M262.23,-72.41C257.4,-64.16 251.45,-54.01 246.04,-44.78"/>
<polygon fill="black" stroke="black" points="248.95,-42.82 240.88,-35.96 242.91,-46.35 248.95,-42.82"/>
</g>
<!-- Race -->
<g id="node6" class="node">
<title>Race</title>
<ellipse fill="none" stroke="black" cx="354.95" cy="-90" rx="28.7" ry="18"/>
<text text-anchor="middle" x="354.95" y="-86.3" font-family="Times New Roman,serif" font-size="14.00">Race</text>
</g>
<!-- Race&#45;&gt;Dropout -->
<g id="edge5" class="edge">
<title>Race&#45;&gt;Dropout</title>
<path fill="none" stroke="black" d="M334.19,-77.28C315.04,-66.47 286.29,-50.24 263.98,-37.65"/>
<polygon fill="black" stroke="black" points="265.6,-34.55 255.17,-32.68 262.16,-40.64 265.6,-34.55"/>
</g>
<!-- Academics -->
<g id="node7" class="node">
<title>Academics</title>
<ellipse fill="none" stroke="black" cx="451.95" cy="-90" rx="50.09" ry="18"/>
<text text-anchor="middle" x="451.95" y="-86.3" font-family="Times New Roman,serif" font-size="14.00">Academics</text>
</g>
<!-- Academics&#45;&gt;Dropout -->
<g id="edge6" class="edge">
<title>Academics&#45;&gt;Dropout</title>
<path fill="none" stroke="black" d="M415.45,-77.44C376.15,-64.99 313.73,-45.22 272.55,-32.18"/>
<polygon fill="black" stroke="black" points="273.42,-28.78 262.83,-29.1 271.3,-35.45 273.42,-28.78"/>
</g>
</g>
</svg>
