<?xml version="1.0" encoding="UTF-8" standalone="no"?>
<!DOCTYPE svg PUBLIC "-//W3C//DTD SVG 1.1//EN"
 "http://www.w3.org/Graphics/SVG/1.1/DTD/svg11.dtd">
<!-- Generated by graphviz version 2.50.0 (0)
 -->
<!-- Pages: 1 -->
<svg width="290pt" height="260pt"
 viewBox="0.00 0.00 290.34 260.00" xmlns="http://www.w3.org/2000/svg" xmlns:xlink="http://www.w3.org/1999/xlink">
<g id="graph0" class="graph" transform="scale(1 1) rotate(0) translate(4 256)">
<polygon fill="white" stroke="transparent" points="-4,4 -4,-256 286.34,-256 286.34,4 -4,4"/>
<!-- T -->
<g id="node1" class="node">
<title>T</title>
<ellipse fill="none" stroke="black" cx="64" cy="-234" rx="27" ry="18"/>
<text text-anchor="middle" x="64" y="-230.3" font-family="Times New Roman,serif" font-size="14.00">T</text>
</g>
<!-- X -->
<g id="node2" class="node">
<title>X</title>
<ellipse fill="#5f5f5f" fill-opacity="0.372549" stroke="black" cx="27" cy="-162" rx="27" ry="18"/>
<text text-anchor="middle" x="27" y="-158.3" font-family="Times New Roman,serif" font-size="14.00">X</text>
</g>
<!-- T&#45;&gt;X -->
<g id="edge1" class="edge">
<title>T&#45;&gt;X</title>
<path fill="none" stroke="black" d="M55.42,-216.76C50.94,-208.28 45.35,-197.71 40.32,-188.2"/>
<polygon fill="black" stroke="black" points="43.3,-186.35 35.54,-179.15 37.11,-189.62 43.3,-186.35"/>
</g>
<!-- Y -->
<g id="node3" class="node">
<title>Y</title>
<ellipse fill="none" stroke="black" cx="52" cy="-90" rx="27" ry="18"/>
<text text-anchor="middle" x="52" y="-86.3" font-family="Times New Roman,serif" font-size="14.00">Y</text>
</g>
<!-- T&#45;&gt;Y -->
<g id="edge2" class="edge">
<title>T&#45;&gt;Y</title>
<path fill="none" stroke="black" d="M64.79,-215.88C65.38,-197.92 65.7,-168.89 63,-144 62.07,-135.46 60.41,-126.26 58.65,-117.96"/>
<polygon fill="black" stroke="black" points="62.03,-117.04 56.41,-108.05 55.2,-118.58 62.03,-117.04"/>
</g>
<!-- X&#45;&gt;Y -->
<g id="edge3" class="edge">
<title>X&#45;&gt;Y</title>
<path fill="none" stroke="black" d="M32.92,-144.41C35.78,-136.42 39.27,-126.64 42.48,-117.64"/>
<polygon fill="black" stroke="black" points="45.88,-118.55 45.94,-107.96 39.28,-116.2 45.88,-118.55"/>
</g>
<!-- Enemy fire -->
<g id="node4" class="node">
<title>Enemy fire</title>
<ellipse fill="none" stroke="black" cx="180" cy="-234" rx="50.89" ry="18"/>
<text text-anchor="middle" x="180" y="-230.3" font-family="Times New Roman,serif" font-size="14.00">Enemy fire</text>
</g>
<!-- Hit location -->
<g id="node5" class="node">
<title>Hit location</title>
<ellipse fill="none" stroke="black" cx="180" cy="-162" rx="52.79" ry="18"/>
<text text-anchor="middle" x="180" y="-158.3" font-family="Times New Roman,serif" font-size="14.00">Hit location</text>
</g>
<!-- Enemy fire&#45;&gt;Hit location -->
<g id="edge4" class="edge">
<title>Enemy fire&#45;&gt;Hit location</title>
<path fill="none" stroke="black" d="M180,-215.7C180,-207.98 180,-198.71 180,-190.11"/>
<polygon fill="black" stroke="black" points="183.5,-190.1 180,-180.1 176.5,-190.1 183.5,-190.1"/>
</g>
<!-- Survival -->
<g id="node6" class="node">
<title>Survival</title>
<ellipse fill="#5f5f5f" fill-opacity="0.372549" stroke="black" cx="158" cy="-90" rx="40.09" ry="18"/>
<text text-anchor="middle" x="158" y="-86.3" font-family="Times New Roman,serif" font-size="14.00">Survival</text>
</g>
<!-- Hit location&#45;&gt;Survival -->
<g id="edge5" class="edge">
<title>Hit location&#45;&gt;Survival</title>
<path fill="none" stroke="black" d="M174.67,-144.05C172.22,-136.26 169.26,-126.82 166.51,-118.08"/>
<polygon fill="black" stroke="black" points="169.77,-116.77 163.43,-108.28 163.09,-118.86 169.77,-116.77"/>
</g>
<!-- Observed hit locations -->
<g id="node7" class="node">
<title>Observed hit locations</title>
<ellipse fill="none" stroke="black" cx="192" cy="-18" rx="90.18" ry="18"/>
<text text-anchor="middle" x="192" y="-14.3" font-family="Times New Roman,serif" font-size="14.00">Observed hit locations</text>
</g>
<!-- Hit location&#45;&gt;Observed hit locations -->
<g id="edge6" class="edge">
<title>Hit location&#45;&gt;Observed hit locations</title>
<path fill="none" stroke="black" d="M191.19,-144.14C197.16,-134.1 203.91,-120.85 207,-108 211.95,-87.37 207.47,-63.66 202.14,-45.9"/>
<polygon fill="black" stroke="black" points="205.41,-44.62 198.98,-36.2 198.75,-46.8 205.41,-44.62"/>
</g>
<!-- Survival&#45;&gt;Observed hit locations -->
<g id="edge7" class="edge">
<title>Survival&#45;&gt;Observed hit locations</title>
<path fill="none" stroke="black" d="M166.23,-72.05C170.1,-64.09 174.8,-54.41 179.12,-45.51"/>
<polygon fill="black" stroke="black" points="182.39,-46.8 183.61,-36.28 176.09,-43.74 182.39,-46.8"/>
</g>
</g>
</svg>
