<?xml version="1.0" encoding="UTF-8" standalone="no"?>
<!DOCTYPE svg PUBLIC "-//W3C//DTD SVG 1.1//EN"
 "http://www.w3.org/Graphics/SVG/1.1/DTD/svg11.dtd">
<!-- Generated by graphviz version 2.50.0 (0)
 -->
<!-- Pages: 1 -->
<svg width="618pt" height="116pt"
 viewBox="0.00 0.00 617.99 116.00" xmlns="http://www.w3.org/2000/svg" xmlns:xlink="http://www.w3.org/1999/xlink">
<g id="graph0" class="graph" transform="scale(1 1) rotate(0) translate(4 112)">
<polygon fill="white" stroke="transparent" points="-4,4 -4,-112 613.99,-112 613.99,4 -4,4"/>
<!-- OnlineClass -->
<g id="node1" class="node">
<title>OnlineClass</title>
<ellipse fill="none" stroke="black" cx="53.95" cy="-90" rx="53.89" ry="18"/>
<text text-anchor="middle" x="53.95" y="-86.3" font-family="Times New Roman,serif" font-size="14.00">OnlineClass</text>
</g>
<!-- Dropout -->
<g id="node2" class="node">
<title>Dropout</title>
<ellipse fill="none" stroke="black" cx="338.95" cy="-18" rx="40.09" ry="18"/>
<text text-anchor="middle" x="338.95" y="-14.3" font-family="Times New Roman,serif" font-size="14.00">Dropout</text>
</g>
<!-- OnlineClass&#45;&gt;Dropout -->
<g id="edge1" class="edge">
<title>OnlineClass&#45;&gt;Dropout</title>
<path fill="none" stroke="black" stroke-dasharray="5,2" d="M94.23,-77.94C101.77,-75.93 109.59,-73.87 116.95,-72 178.05,-56.47 248.95,-39.77 293.87,-29.35"/>
<polygon fill="black" stroke="black" points="294.92,-32.7 303.88,-27.04 293.35,-25.88 294.92,-32.7"/>
</g>
<!-- AvailableTime -->
<g id="node3" class="node">
<title>AvailableTime</title>
<ellipse fill="none" stroke="black" cx="189.95" cy="-90" rx="63.89" ry="18"/>
<text text-anchor="middle" x="189.95" y="-86.3" font-family="Times New Roman,serif" font-size="14.00">AvailableTime</text>
</g>
<!-- AvailableTime&#45;&gt;Dropout -->
<g id="edge2" class="edge">
<title>AvailableTime&#45;&gt;Dropout</title>
<path fill="none" stroke="black" d="M221.54,-74.15C245.33,-62.98 277.96,-47.65 302.79,-35.99"/>
<polygon fill="black" stroke="black" points="304.32,-39.13 311.89,-31.71 301.35,-32.8 304.32,-39.13"/>
</g>
<!-- Age -->
<g id="node4" class="node">
<title>Age</title>
<ellipse fill="none" stroke="black" cx="298.95" cy="-90" rx="27" ry="18"/>
<text text-anchor="middle" x="298.95" y="-86.3" font-family="Times New Roman,serif" font-size="14.00">Age</text>
</g>
<!-- Age&#45;&gt;Dropout -->
<g id="edge3" class="edge">
<title>Age&#45;&gt;Dropout</title>
<path fill="none" stroke="black" d="M308.22,-72.76C313,-64.4 318.94,-54.02 324.31,-44.61"/>
<polygon fill="black" stroke="black" points="327.52,-46.05 329.44,-35.63 321.44,-42.58 327.52,-46.05"/>
</g>
<!-- Gender -->
<g id="node5" class="node">
<title>Gender</title>
<ellipse fill="none" stroke="black" cx="379.95" cy="-90" rx="36.29" ry="18"/>
<text text-anchor="middle" x="379.95" y="-86.3" font-family="Times New Roman,serif" font-size="14.00">Gender</text>
</g>
<!-- Gender&#45;&gt;Dropout -->
<g id="edge4" class="edge">
<title>Gender&#45;&gt;Dropout</title>
<path fill="none" stroke="black" d="M370.23,-72.41C365.4,-64.16 359.45,-54.01 354.04,-44.78"/>
<polygon fill="black" stroke="black" points="356.95,-42.82 348.88,-35.96 350.91,-46.35 356.95,-42.82"/>
</g>
<!-- Race -->
<g id="node6" class="node">
<title>Race</title>
<ellipse fill="none" stroke="black" cx="462.95" cy="-90" rx="28.7" ry="18"/>
<text text-anchor="middle" x="462.95" y="-86.3" font-family="Times New Roman,serif" font-size="14.00">Race</text>
</g>
<!-- Race&#45;&gt;Dropout -->
<g id="edge5" class="edge">
<title>Race&#45;&gt;Dropout</title>
<path fill="none" stroke="black" d="M442.19,-77.28C423.04,-66.47 394.29,-50.24 371.98,-37.65"/>
<polygon fill="black" stroke="black" points="373.6,-34.55 363.17,-32.68 370.16,-40.64 373.6,-34.55"/>
</g>
<!-- Academics -->
<g id="node7" class="node">
<title>Academics</title>
<ellipse fill="none" stroke="black" cx="559.95" cy="-90" rx="50.09" ry="18"/>
<text text-anchor="middle" x="559.95" y="-86.3" font-family="Times New Roman,serif" font-size="14.00">Academics</text>
</g>
<!-- Academics&#45;&gt;Dropout -->
<g id="edge6" class="edge">
<title>Academics&#45;&gt;Dropout</title>
<path fill="none" stroke="black" d="M523.45,-77.44C484.15,-64.99 421.73,-45.22 380.55,-32.18"/>
<polygon fill="black" stroke="black" points="381.42,-28.78 370.83,-29.1 379.3,-35.45 381.42,-28.78"/>
</g>
</g>
</svg>
