<?xml version="1.0" encoding="UTF-8" standalone="no"?>
<!DOCTYPE svg PUBLIC "-//W3C//DTD SVG 1.1//EN"
 "http://www.w3.org/Graphics/SVG/1.1/DTD/svg11.dtd">
<!-- Generated by graphviz version 2.50.0 (0)
 -->
<!-- Pages: 1 -->
<svg width="140pt" height="260pt"
 viewBox="0.00 0.00 139.84 260.00" xmlns="http://www.w3.org/2000/svg" xmlns:xlink="http://www.w3.org/1999/xlink">
<g id="graph0" class="graph" transform="scale(1 1) rotate(0) translate(4 256)">
<polygon fill="white" stroke="transparent" points="-4,4 -4,-256 135.84,-256 135.84,4 -4,4"/>
<!-- LotsOfStuff -->
<g id="node1" class="node">
<title>LotsOfStuff</title>
<ellipse fill="none" stroke="black" cx="77.9" cy="-234" rx="53.09" ry="18"/>
<text text-anchor="middle" x="77.9" y="-230.3" font-family="Times New Roman,serif" font-size="14.00">LotsOfStuff</text>
</g>
<!-- Smoking -->
<g id="node2" class="node">
<title>Smoking</title>
<ellipse fill="none" stroke="black" cx="42.9" cy="-162" rx="42.79" ry="18"/>
<text text-anchor="middle" x="42.9" y="-158.3" font-family="Times New Roman,serif" font-size="14.00">Smoking</text>
</g>
<!-- LotsOfStuff&#45;&gt;Smoking -->
<g id="edge1" class="edge">
<title>LotsOfStuff&#45;&gt;Smoking</title>
<path fill="none" stroke="black" d="M69.42,-216.05C65.34,-207.89 60.35,-197.91 55.81,-188.82"/>
<polygon fill="black" stroke="black" points="58.89,-187.17 51.29,-179.79 52.63,-190.3 58.89,-187.17"/>
</g>
<!-- LungCancer -->
<g id="node3" class="node">
<title>LungCancer</title>
<ellipse fill="none" stroke="black" cx="77.9" cy="-18" rx="53.89" ry="18"/>
<text text-anchor="middle" x="77.9" y="-14.3" font-family="Times New Roman,serif" font-size="14.00">LungCancer</text>
</g>
<!-- LotsOfStuff&#45;&gt;LungCancer -->
<g id="edge2" class="edge">
<title>LotsOfStuff&#45;&gt;LungCancer</title>
<path fill="none" stroke="black" d="M84.79,-216.14C88.6,-205.88 92.95,-192.41 94.9,-180 102.23,-133.1 92.49,-78 85.01,-45.94"/>
<polygon fill="black" stroke="black" points="88.35,-44.88 82.59,-35.99 81.55,-46.54 88.35,-44.88"/>
</g>
<!-- Tar -->
<g id="node4" class="node">
<title>Tar</title>
<ellipse fill="none" stroke="black" cx="50.9" cy="-90" rx="27" ry="18"/>
<text text-anchor="middle" x="50.9" y="-86.3" font-family="Times New Roman,serif" font-size="14.00">Tar</text>
</g>
<!-- Smoking&#45;&gt;Tar -->
<g id="edge3" class="edge">
<title>Smoking&#45;&gt;Tar</title>
<path fill="none" stroke="black" stroke-dasharray="5,2" d="M44.87,-143.7C45.76,-135.98 46.81,-126.71 47.8,-118.11"/>
<polygon fill="black" stroke="black" points="51.28,-118.44 48.94,-108.1 44.33,-117.64 51.28,-118.44"/>
</g>
<!-- Tar&#45;&gt;LungCancer -->
<g id="edge4" class="edge">
<title>Tar&#45;&gt;LungCancer</title>
<path fill="none" stroke="black" stroke-dasharray="5,2" d="M57.29,-72.41C60.41,-64.34 64.23,-54.43 67.73,-45.35"/>
<polygon fill="black" stroke="black" points="71.02,-46.55 71.36,-35.96 64.49,-44.03 71.02,-46.55"/>
</g>
</g>
</svg>
