<?xml version="1.0" encoding="UTF-8" standalone="no"?>
<!DOCTYPE svg PUBLIC "-//W3C//DTD SVG 1.1//EN"
 "http://www.w3.org/Graphics/SVG/1.1/DTD/svg11.dtd">
<!-- Generated by graphviz version 2.50.0 (0)
 -->
<!-- Pages: 1 -->
<svg width="136pt" height="188pt"
 viewBox="0.00 0.00 135.64 188.00" xmlns="http://www.w3.org/2000/svg" xmlns:xlink="http://www.w3.org/1999/xlink">
<g id="graph0" class="graph" transform="scale(1 1) rotate(0) translate(4 184)">
<polygon fill="white" stroke="transparent" points="-4,4 -4,-184 131.64,-184 131.64,4 -4,4"/>
<!-- medicine -->
<g id="node1" class="node">
<title>medicine</title>
<ellipse fill="none" stroke="black" cx="43.55" cy="-90" rx="43.59" ry="18"/>
<text text-anchor="middle" x="43.55" y="-86.3" font-family="Times New Roman,serif" font-size="14.00">medicine</text>
</g>
<!-- survived -->
<g id="node2" class="node">
<title>survived</title>
<ellipse fill="none" stroke="black" cx="79.55" cy="-18" rx="40.89" ry="18"/>
<text text-anchor="middle" x="79.55" y="-14.3" font-family="Times New Roman,serif" font-size="14.00">survived</text>
</g>
<!-- medicine&#45;&gt;survived -->
<g id="edge1" class="edge">
<title>medicine&#45;&gt;survived</title>
<path fill="none" stroke="black" d="M52.26,-72.05C56.46,-63.89 61.59,-53.91 66.27,-44.82"/>
<polygon fill="black" stroke="black" points="69.45,-46.28 70.91,-35.79 63.23,-43.08 69.45,-46.28"/>
</g>
<!-- severeness -->
<g id="node3" class="node">
<title>severeness</title>
<ellipse fill="none" stroke="black" cx="79.55" cy="-162" rx="48.19" ry="18"/>
<text text-anchor="middle" x="79.55" y="-158.3" font-family="Times New Roman,serif" font-size="14.00">severeness</text>
</g>
<!-- severeness&#45;&gt;medicine -->
<g id="edge3" class="edge">
<title>severeness&#45;&gt;medicine</title>
<path fill="none" stroke="black" d="M70.83,-144.05C66.63,-135.89 61.5,-125.91 56.83,-116.82"/>
<polygon fill="black" stroke="black" points="59.87,-115.08 52.18,-107.79 53.64,-118.28 59.87,-115.08"/>
</g>
<!-- severeness&#45;&gt;survived -->
<g id="edge2" class="edge">
<title>severeness&#45;&gt;survived</title>
<path fill="none" stroke="black" d="M86.44,-144.14C90.25,-133.88 94.6,-120.41 96.55,-108 99.02,-92.19 99.02,-87.81 96.55,-72 95.17,-63.18 92.57,-53.82 89.81,-45.46"/>
<polygon fill="black" stroke="black" points="93.05,-44.13 86.44,-35.86 86.45,-46.45 93.05,-44.13"/>
</g>
</g>
</svg>
