<?xml version="1.0" encoding="UTF-8" standalone="no"?>
<!DOCTYPE svg PUBLIC "-//W3C//DTD SVG 1.1//EN"
 "http://www.w3.org/Graphics/SVG/1.1/DTD/svg11.dtd">
<!-- Generated by graphviz version 2.50.0 (0)
 -->
<!-- Pages: 1 -->
<svg width="365pt" height="260pt"
 viewBox="0.00 0.00 364.54 260.00" xmlns="http://www.w3.org/2000/svg" xmlns:xlink="http://www.w3.org/1999/xlink">
<g id="graph0" class="graph" transform="scale(1 1) rotate(0) translate(4 256)">
<polygon fill="white" stroke="transparent" points="-4,4 -4,-256 360.54,-256 360.54,4 -4,4"/>
<!-- X -->
<g id="node1" class="node">
<title>X</title>
<ellipse fill="lightgrey" stroke="black" cx="27" cy="-90" rx="27" ry="18"/>
<text text-anchor="middle" x="27" y="-86.3" font-family="Times New Roman,serif" font-size="14.00">X</text>
</g>
<!-- T -->
<g id="node2" class="node">
<title>T</title>
<ellipse fill="none" stroke="black" cx="37" cy="-234" rx="27" ry="18"/>
<text text-anchor="middle" x="37" y="-230.3" font-family="Times New Roman,serif" font-size="14.00">T</text>
</g>
<!-- T&#45;&gt;X -->
<g id="edge1" class="edge">
<title>T&#45;&gt;X</title>
<path fill="none" stroke="black" d="M26.76,-217.02C20.88,-206.86 14.06,-193.18 11,-180 6.13,-159.03 11.07,-135 16.7,-117.2"/>
<polygon fill="black" stroke="black" points="20.09,-118.1 20.03,-107.5 13.47,-115.83 20.09,-118.1"/>
</g>
<!-- Y -->
<g id="node3" class="node">
<title>Y</title>
<ellipse fill="none" stroke="black" cx="47" cy="-162" rx="27" ry="18"/>
<text text-anchor="middle" x="47" y="-158.3" font-family="Times New Roman,serif" font-size="14.00">Y</text>
</g>
<!-- T&#45;&gt;Y -->
<g id="edge2" class="edge">
<title>T&#45;&gt;Y</title>
<path fill="none" stroke="black" d="M39.42,-216.05C40.52,-208.35 41.85,-199.03 43.09,-190.36"/>
<polygon fill="black" stroke="black" points="46.58,-190.67 44.53,-180.28 39.65,-189.68 46.58,-190.67"/>
</g>
<!-- Y&#45;&gt;X -->
<g id="edge3" class="edge">
<title>Y&#45;&gt;X</title>
<path fill="none" stroke="black" d="M42.16,-144.05C39.9,-136.14 37.15,-126.54 34.63,-117.69"/>
<polygon fill="black" stroke="black" points="37.91,-116.44 31.8,-107.79 31.18,-118.37 37.91,-116.44"/>
</g>
<!-- Investments -->
<g id="node4" class="node">
<title>Investments</title>
<ellipse fill="lightgrey" stroke="black" cx="140" cy="-90" rx="53.89" ry="18"/>
<text text-anchor="middle" x="140" y="-86.3" font-family="Times New Roman,serif" font-size="14.00">Investments</text>
</g>
<!-- Educ -->
<g id="node5" class="node">
<title>Educ</title>
<ellipse fill="none" stroke="black" cx="129" cy="-234" rx="28.7" ry="18"/>
<text text-anchor="middle" x="129" y="-230.3" font-family="Times New Roman,serif" font-size="14.00">Educ</text>
</g>
<!-- Educ&#45;&gt;Investments -->
<g id="edge4" class="edge">
<title>Educ&#45;&gt;Investments</title>
<path fill="none" stroke="black" d="M130.33,-215.87C132.2,-191.67 135.65,-147.21 137.88,-118.39"/>
<polygon fill="black" stroke="black" points="141.39,-118.43 138.67,-108.19 134.41,-117.89 141.39,-118.43"/>
</g>
<!-- Wage -->
<g id="node6" class="node">
<title>Wage</title>
<ellipse fill="none" stroke="black" cx="179" cy="-162" rx="30.59" ry="18"/>
<text text-anchor="middle" x="179" y="-158.3" font-family="Times New Roman,serif" font-size="14.00">Wage</text>
</g>
<!-- Educ&#45;&gt;Wage -->
<g id="edge5" class="edge">
<title>Educ&#45;&gt;Wage</title>
<path fill="none" stroke="black" d="M140.35,-217.12C146.67,-208.26 154.69,-197.04 161.77,-187.12"/>
<polygon fill="black" stroke="black" points="164.73,-188.99 167.7,-178.82 159.04,-184.92 164.73,-188.99"/>
</g>
<!-- Wage&#45;&gt;Investments -->
<g id="edge6" class="edge">
<title>Wage&#45;&gt;Investments</title>
<path fill="none" stroke="black" d="M169.95,-144.76C165.36,-136.53 159.68,-126.32 154.49,-117.02"/>
<polygon fill="black" stroke="black" points="157.47,-115.16 149.54,-108.12 151.35,-118.56 157.47,-115.16"/>
</g>
<!-- Educ2 -->
<g id="node7" class="node">
<title>Educ2</title>
<ellipse fill="none" stroke="black" cx="287" cy="-234" rx="28.7" ry="18"/>
<text text-anchor="middle" x="287" y="-230.3" font-family="Times New Roman,serif" font-size="14.00">Educ</text>
</g>
<!-- Wage2 -->
<g id="node8" class="node">
<title>Wage2</title>
<ellipse fill="none" stroke="black" cx="258" cy="-162" rx="30.59" ry="18"/>
<text text-anchor="middle" x="258" y="-158.3" font-family="Times New Roman,serif" font-size="14.00">Wage</text>
</g>
<!-- Educ2&#45;&gt;Wage2 -->
<g id="edge7" class="edge">
<title>Educ2&#45;&gt;Wage2</title>
<path fill="none" stroke="black" d="M280.13,-216.41C276.78,-208.34 272.68,-198.43 268.92,-189.35"/>
<polygon fill="black" stroke="black" points="272.09,-187.86 265.02,-179.96 265.62,-190.53 272.09,-187.86"/>
</g>
<!-- Investments2 -->
<g id="node9" class="node">
<title>Investments2</title>
<ellipse fill="none" stroke="black" cx="287" cy="-90" rx="53.89" ry="18"/>
<text text-anchor="middle" x="287" y="-86.3" font-family="Times New Roman,serif" font-size="14.00">Investments</text>
</g>
<!-- Educ2&#45;&gt;Investments2 -->
<g id="edge9" class="edge">
<title>Educ2&#45;&gt;Investments2</title>
<path fill="none" stroke="black" d="M291.46,-215.95C293.94,-205.63 296.75,-192.15 298,-180 299.63,-164.08 299.63,-159.92 298,-144 297.12,-135.46 295.47,-126.26 293.71,-117.96"/>
<polygon fill="black" stroke="black" points="297.08,-117.03 291.46,-108.05 290.26,-118.57 297.08,-117.03"/>
</g>
<!-- Wage2&#45;&gt;Investments2 -->
<g id="edge8" class="edge">
<title>Wage2&#45;&gt;Investments2</title>
<path fill="none" stroke="black" d="M264.87,-144.41C268.22,-136.34 272.32,-126.43 276.08,-117.35"/>
<polygon fill="black" stroke="black" points="279.38,-118.53 279.98,-107.96 272.91,-115.86 279.38,-118.53"/>
</g>
<!-- CapitalGainsTax -->
<g id="node10" class="node">
<title>CapitalGainsTax</title>
<ellipse fill="lightgrey" stroke="black" cx="287" cy="-18" rx="69.59" ry="18"/>
<text text-anchor="middle" x="287" y="-14.3" font-family="Times New Roman,serif" font-size="14.00">CapitalGainsTax</text>
</g>
<!-- Investments2&#45;&gt;CapitalGainsTax -->
<g id="edge10" class="edge">
<title>Investments2&#45;&gt;CapitalGainsTax</title>
<path fill="none" stroke="black" d="M287,-71.7C287,-63.98 287,-54.71 287,-46.11"/>
<polygon fill="black" stroke="black" points="290.5,-46.1 287,-36.1 283.5,-46.1 290.5,-46.1"/>
</g>
</g>
</svg>
