<?xml version="1.0" encoding="UTF-8" standalone="no"?>
<!DOCTYPE svg PUBLIC "-//W3C//DTD SVG 1.1//EN"
 "http://www.w3.org/Graphics/SVG/1.1/DTD/svg11.dtd">
<!-- Generated by graphviz version 2.50.0 (0)
 -->
<!-- Pages: 1 -->
<svg width="128pt" height="116pt"
 viewBox="0.00 0.00 127.59 116.00" xmlns="http://www.w3.org/2000/svg" xmlns:xlink="http://www.w3.org/1999/xlink">
<g id="graph0" class="graph" transform="scale(1 1) rotate(0) translate(4 112)">
<polygon fill="white" stroke="transparent" points="-4,4 -4,-112 123.59,-112 123.59,4 -4,4"/>
<!-- PrivateSchool -->
<g id="node1" class="node">
<title>PrivateSchool</title>
<ellipse fill="none" stroke="black" cx="59.79" cy="-90" rx="59.59" ry="18"/>
<text text-anchor="middle" x="59.79" y="-86.3" font-family="Times New Roman,serif" font-size="14.00">PrivateSchool</text>
</g>
<!-- Wealth -->
<g id="node2" class="node">
<title>Wealth</title>
<ellipse fill="none" stroke="black" cx="59.79" cy="-18" rx="36" ry="18"/>
<text text-anchor="middle" x="59.79" y="-14.3" font-family="Times New Roman,serif" font-size="14.00">Wealth</text>
</g>
<!-- PrivateSchool&#45;&gt;Wealth -->
<g id="edge1" class="edge">
<title>PrivateSchool&#45;&gt;Wealth</title>
<path fill="none" stroke="black" d="M53.92,-72.05C53.09,-64.23 52.85,-54.75 53.2,-45.98"/>
<polygon fill="black" stroke="black" points="56.71,-46.01 53.93,-35.79 49.73,-45.51 56.71,-46.01"/>
</g>
<!-- Wealth&#45;&gt;PrivateSchool -->
<g id="edge2" class="edge">
<title>Wealth&#45;&gt;PrivateSchool</title>
<path fill="none" stroke="black" d="M65.66,-35.79C66.49,-43.59 66.74,-53.07 66.39,-61.85"/>
<polygon fill="black" stroke="black" points="62.88,-61.83 65.67,-72.05 69.87,-62.33 62.88,-61.83"/>
</g>
</g>
</svg>
