<?xml version="1.0" encoding="UTF-8" standalone="no"?>
<!DOCTYPE svg PUBLIC "-//W3C//DTD SVG 1.1//EN"
 "http://www.w3.org/Graphics/SVG/1.1/DTD/svg11.dtd">
<!-- Generated by graphviz version 2.50.0 (0)
 -->
<!-- Pages: 1 -->
<svg width="264pt" height="260pt"
 viewBox="0.00 0.00 263.64 260.00" xmlns="http://www.w3.org/2000/svg" xmlns:xlink="http://www.w3.org/1999/xlink">
<g id="graph0" class="graph" transform="scale(1 1) rotate(0) translate(4 256)">
<polygon fill="white" stroke="transparent" points="-4,4 -4,-256 259.64,-256 259.64,4 -4,4"/>
<!-- Family Income -->
<g id="node1" class="node">
<title>Family Income</title>
<ellipse fill="none" stroke="black" cx="65.64" cy="-162" rx="65.79" ry="18"/>
<text text-anchor="middle" x="65.64" y="-158.3" font-family="Times New Roman,serif" font-size="14.00">Family Income</text>
</g>
<!-- Educ -->
<g id="node2" class="node">
<title>Educ</title>
<ellipse fill="none" stroke="black" cx="161.64" cy="-90" rx="28.7" ry="18"/>
<text text-anchor="middle" x="161.64" y="-86.3" font-family="Times New Roman,serif" font-size="14.00">Educ</text>
</g>
<!-- Family Income&#45;&gt;Educ -->
<g id="edge1" class="edge">
<title>Family Income&#45;&gt;Educ</title>
<path fill="none" stroke="black" d="M87.91,-144.76C102.08,-134.43 120.49,-121.01 135.38,-110.15"/>
<polygon fill="black" stroke="black" points="137.65,-112.82 143.67,-104.1 133.53,-107.17 137.65,-112.82"/>
</g>
<!-- Wage -->
<g id="node3" class="node">
<title>Wage</title>
<ellipse fill="none" stroke="black" cx="161.64" cy="-18" rx="30.59" ry="18"/>
<text text-anchor="middle" x="161.64" y="-14.3" font-family="Times New Roman,serif" font-size="14.00">Wage</text>
</g>
<!-- Family Income&#45;&gt;Wage -->
<g id="edge4" class="edge">
<title>Family Income&#45;&gt;Wage</title>
<path fill="none" stroke="black" d="M76.33,-144.12C87.8,-126.11 106.68,-96.81 123.64,-72 130.13,-62.51 137.45,-52.21 143.93,-43.23"/>
<polygon fill="black" stroke="black" points="146.78,-45.26 149.81,-35.11 141.11,-41.15 146.78,-45.26"/>
</g>
<!-- Educ&#45;&gt;Wage -->
<g id="edge2" class="edge">
<title>Educ&#45;&gt;Wage</title>
<path fill="none" stroke="black" d="M161.64,-71.7C161.64,-63.98 161.64,-54.71 161.64,-46.11"/>
<polygon fill="black" stroke="black" points="165.14,-46.1 161.64,-36.1 158.14,-46.1 165.14,-46.1"/>
</g>
<!-- SAT -->
<g id="node4" class="node">
<title>SAT</title>
<ellipse fill="none" stroke="black" cx="176.64" cy="-162" rx="27" ry="18"/>
<text text-anchor="middle" x="176.64" y="-158.3" font-family="Times New Roman,serif" font-size="14.00">SAT</text>
</g>
<!-- SAT&#45;&gt;Educ -->
<g id="edge3" class="edge">
<title>SAT&#45;&gt;Educ</title>
<path fill="none" stroke="black" d="M173.01,-144.05C171.34,-136.26 169.32,-126.82 167.45,-118.08"/>
<polygon fill="black" stroke="black" points="170.86,-117.32 165.35,-108.28 164.02,-118.79 170.86,-117.32"/>
</g>
<!-- Intelligence -->
<g id="node5" class="node">
<title>Intelligence</title>
<ellipse fill="none" stroke="black" cx="203.64" cy="-234" rx="51.99" ry="18"/>
<text text-anchor="middle" x="203.64" y="-230.3" font-family="Times New Roman,serif" font-size="14.00">Intelligence</text>
</g>
<!-- Intelligence&#45;&gt;Wage -->
<g id="edge6" class="edge">
<title>Intelligence&#45;&gt;Wage</title>
<path fill="none" stroke="black" d="M207.3,-215.91C209.32,-205.57 211.62,-192.09 212.64,-180 216.71,-131.82 218.49,-116.52 199.64,-72 195.16,-61.41 188.26,-50.88 181.56,-42.04"/>
<polygon fill="black" stroke="black" points="184.24,-39.78 175.28,-34.12 178.75,-44.13 184.24,-39.78"/>
</g>
<!-- Intelligence&#45;&gt;SAT -->
<g id="edge5" class="edge">
<title>Intelligence&#45;&gt;SAT</title>
<path fill="none" stroke="black" d="M197.11,-216.05C194.02,-208.06 190.27,-198.33 186.83,-189.4"/>
<polygon fill="black" stroke="black" points="189.98,-187.86 183.12,-179.79 183.45,-190.38 189.98,-187.86"/>
</g>
</g>
</svg>
