<?xml version="1.0" encoding="UTF-8" standalone="no"?>
<!DOCTYPE svg PUBLIC "-//W3C//DTD SVG 1.1//EN"
 "http://www.w3.org/Graphics/SVG/1.1/DTD/svg11.dtd">
<!-- Generated by graphviz version 2.50.0 (0)
 -->
<!-- Pages: 1 -->
<svg width="144pt" height="188pt"
 viewBox="0.00 0.00 144.49 188.00" xmlns="http://www.w3.org/2000/svg" xmlns:xlink="http://www.w3.org/1999/xlink">
<g id="graph0" class="graph" transform="scale(1 1) rotate(0) translate(4 184)">
<polygon fill="white" stroke="transparent" points="-4,4 -4,-184 140.49,-184 140.49,4 -4,4"/>
<!-- PrivateSchool(t) -->
<g id="node1" class="node">
<title>PrivateSchool(t)</title>
<ellipse fill="none" stroke="black" cx="68.24" cy="-90" rx="68.49" ry="18"/>
<text text-anchor="middle" x="68.24" y="-86.3" font-family="Times New Roman,serif" font-size="14.00">PrivateSchool(t)</text>
</g>
<!-- Wealth(t+1) -->
<g id="node2" class="node">
<title>Wealth(t+1)</title>
<ellipse fill="none" stroke="black" cx="68.24" cy="-18" rx="53.89" ry="18"/>
<text text-anchor="middle" x="68.24" y="-14.3" font-family="Times New Roman,serif" font-size="14.00">Wealth(t+1)</text>
</g>
<!-- PrivateSchool(t)&#45;&gt;Wealth(t+1) -->
<g id="edge1" class="edge">
<title>PrivateSchool(t)&#45;&gt;Wealth(t+1)</title>
<path fill="none" stroke="black" d="M68.24,-71.7C68.24,-63.98 68.24,-54.71 68.24,-46.11"/>
<polygon fill="black" stroke="black" points="71.74,-46.1 68.24,-36.1 64.74,-46.1 71.74,-46.1"/>
</g>
<!-- Wealth(t) -->
<g id="node3" class="node">
<title>Wealth(t)</title>
<ellipse fill="none" stroke="black" cx="68.24" cy="-162" rx="44.39" ry="18"/>
<text text-anchor="middle" x="68.24" y="-158.3" font-family="Times New Roman,serif" font-size="14.00">Wealth(t)</text>
</g>
<!-- Wealth(t)&#45;&gt;PrivateSchool(t) -->
<g id="edge2" class="edge">
<title>Wealth(t)&#45;&gt;PrivateSchool(t)</title>
<path fill="none" stroke="black" d="M68.24,-143.7C68.24,-135.98 68.24,-126.71 68.24,-118.11"/>
<polygon fill="black" stroke="black" points="71.74,-118.1 68.24,-108.1 64.74,-118.1 71.74,-118.1"/>
</g>
</g>
</svg>
