<?xml version="1.0" encoding="UTF-8" standalone="no"?>
<!DOCTYPE svg PUBLIC "-//W3C//DTD SVG 1.1//EN"
 "http://www.w3.org/Graphics/SVG/1.1/DTD/svg11.dtd">
<!-- Generated by graphviz version 2.50.0 (0)
 -->
<!-- Pages: 1 -->
<svg width="665pt" height="404pt"
 viewBox="0.00 0.00 664.67 404.00" xmlns="http://www.w3.org/2000/svg" xmlns:xlink="http://www.w3.org/1999/xlink">
<g id="graph0" class="graph" transform="scale(1 1) rotate(0) translate(4 400)">
<polygon fill="white" stroke="transparent" points="-4,4 -4,-400 660.67,-400 660.67,4 -4,4"/>
<!-- OnlineClass -->
<g id="node1" class="node">
<title>OnlineClass</title>
<ellipse fill="none" stroke="black" cx="317.43" cy="-90" rx="53.89" ry="18"/>
<text text-anchor="middle" x="317.43" y="-86.3" font-family="Times New Roman,serif" font-size="14.00">OnlineClass</text>
</g>
<!-- Dropout -->
<g id="node2" class="node">
<title>Dropout</title>
<ellipse fill="none" stroke="black" cx="173.43" cy="-18" rx="40.09" ry="18"/>
<text text-anchor="middle" x="173.43" y="-14.3" font-family="Times New Roman,serif" font-size="14.00">Dropout</text>
</g>
<!-- OnlineClass&#45;&gt;Dropout -->
<g id="edge1" class="edge">
<title>OnlineClass&#45;&gt;Dropout</title>
<path fill="none" stroke="black" stroke-dasharray="5,2" d="M288.29,-74.83C265.36,-63.69 233.32,-48.11 208.9,-36.24"/>
<polygon fill="black" stroke="black" points="210.14,-32.96 199.62,-31.73 207.08,-39.25 210.14,-32.96"/>
</g>
<!-- AvailableTime -->
<g id="node3" class="node">
<title>AvailableTime</title>
<ellipse fill="none" stroke="black" cx="219.43" cy="-162" rx="63.89" ry="18"/>
<text text-anchor="middle" x="219.43" y="-158.3" font-family="Times New Roman,serif" font-size="14.00">AvailableTime</text>
</g>
<!-- AvailableTime&#45;&gt;OnlineClass -->
<g id="edge7" class="edge">
<title>AvailableTime&#45;&gt;OnlineClass</title>
<path fill="none" stroke="black" d="M241.66,-145.12C255.17,-135.47 272.58,-123.04 287.3,-112.52"/>
<polygon fill="black" stroke="black" points="289.51,-115.24 295.61,-106.58 285.44,-109.54 289.51,-115.24"/>
</g>
<!-- AvailableTime&#45;&gt;Dropout -->
<g id="edge2" class="edge">
<title>AvailableTime&#45;&gt;Dropout</title>
<path fill="none" stroke="black" d="M213.88,-143.87C206,-119.56 191.51,-74.82 182.18,-46.01"/>
<polygon fill="black" stroke="black" points="185.41,-44.62 178.99,-36.19 178.75,-46.78 185.41,-44.62"/>
</g>
<!-- Age -->
<g id="node4" class="node">
<title>Age</title>
<ellipse fill="none" stroke="black" cx="320.43" cy="-306" rx="27" ry="18"/>
<text text-anchor="middle" x="320.43" y="-302.3" font-family="Times New Roman,serif" font-size="14.00">Age</text>
</g>
<!-- Age&#45;&gt;Dropout -->
<g id="edge3" class="edge">
<title>Age&#45;&gt;Dropout</title>
<path fill="none" stroke="black" d="M295.96,-297.81C247.03,-283.41 141.72,-252.4 141.43,-252 94.89,-189.69 135.31,-91.13 159.06,-44.75"/>
<polygon fill="black" stroke="black" points="162.27,-46.15 163.83,-35.67 156.08,-42.89 162.27,-46.15"/>
</g>
<!-- Age&#45;&gt;AvailableTime -->
<g id="edge10" class="edge">
<title>Age&#45;&gt;AvailableTime</title>
<path fill="none" stroke="black" d="M310.91,-288.85C300.03,-270.71 281.4,-240.59 263.43,-216 256.4,-206.39 248.19,-196.24 240.77,-187.43"/>
<polygon fill="black" stroke="black" points="243.39,-185.1 234.24,-179.76 238.06,-189.64 243.39,-185.1"/>
</g>
<!-- Preferences -->
<g id="node9" class="node">
<title>Preferences</title>
<ellipse fill="none" stroke="black" cx="358.43" cy="-162" rx="51.99" ry="18"/>
<text text-anchor="middle" x="358.43" y="-158.3" font-family="Times New Roman,serif" font-size="14.00">Preferences</text>
</g>
<!-- Age&#45;&gt;Preferences -->
<g id="edge11" class="edge">
<title>Age&#45;&gt;Preferences</title>
<path fill="none" stroke="black" d="M324.93,-288.15C331.41,-263.94 343.43,-219.05 351.17,-190.13"/>
<polygon fill="black" stroke="black" points="354.6,-190.83 353.81,-180.27 347.84,-189.02 354.6,-190.83"/>
</g>
<!-- SES -->
<g id="node11" class="node">
<title>SES</title>
<ellipse fill="none" stroke="black" cx="527.43" cy="-234" rx="27" ry="18"/>
<text text-anchor="middle" x="527.43" y="-230.3" font-family="Times New Roman,serif" font-size="14.00">SES</text>
</g>
<!-- Age&#45;&gt;SES -->
<g id="edge15" class="edge">
<title>Age&#45;&gt;SES</title>
<path fill="none" stroke="black" d="M343.83,-296.61C351.64,-293.84 360.4,-290.76 368.43,-288 411.63,-273.15 461.65,-256.58 493.87,-245.98"/>
<polygon fill="black" stroke="black" points="495.27,-249.21 503.67,-242.76 493.08,-242.56 495.27,-249.21"/>
</g>
<!-- WorkHours -->
<g id="node12" class="node">
<title>WorkHours</title>
<ellipse fill="none" stroke="black" cx="202.43" cy="-234" rx="51.99" ry="18"/>
<text text-anchor="middle" x="202.43" y="-230.3" font-family="Times New Roman,serif" font-size="14.00">WorkHours</text>
</g>
<!-- Age&#45;&gt;WorkHours -->
<g id="edge16" class="edge">
<title>Age&#45;&gt;WorkHours</title>
<path fill="none" stroke="black" d="M300.94,-293.44C283.41,-283.04 257.28,-267.54 236.33,-255.11"/>
<polygon fill="black" stroke="black" points="238.09,-252.09 227.71,-250 234.52,-258.11 238.09,-252.09"/>
</g>
<!-- Gender -->
<g id="node5" class="node">
<title>Gender</title>
<ellipse fill="none" stroke="black" cx="413.43" cy="-306" rx="36.29" ry="18"/>
<text text-anchor="middle" x="413.43" y="-302.3" font-family="Times New Roman,serif" font-size="14.00">Gender</text>
</g>
<!-- Gender&#45;&gt;Dropout -->
<g id="edge4" class="edge">
<title>Gender&#45;&gt;Dropout</title>
<path fill="none" stroke="black" d="M419.51,-288.07C422.88,-277.79 426.72,-264.31 428.43,-252 439.81,-169.99 445.71,-122.93 380.43,-72 335.25,-36.75 269.22,-24.75 223.96,-20.76"/>
<polygon fill="black" stroke="black" points="224.02,-17.26 213.78,-19.97 223.48,-24.24 224.02,-17.26"/>
</g>
<!-- Gender&#45;&gt;AvailableTime -->
<g id="edge23" class="edge">
<title>Gender&#45;&gt;AvailableTime</title>
<path fill="none" stroke="black" d="M393.76,-290.6C359.67,-265.65 289.44,-214.25 249.3,-184.87"/>
<polygon fill="black" stroke="black" points="251.35,-182.03 241.21,-178.95 247.22,-187.68 251.35,-182.03"/>
</g>
<!-- Gender&#45;&gt;Preferences -->
<g id="edge12" class="edge">
<title>Gender&#45;&gt;Preferences</title>
<path fill="none" stroke="black" d="M416.41,-287.81C418.83,-269.28 420.41,-239.31 410.43,-216 405.43,-204.34 396.59,-193.81 387.59,-185.26"/>
<polygon fill="black" stroke="black" points="389.88,-182.61 380.09,-178.57 385.22,-187.84 389.88,-182.61"/>
</g>
<!-- Gender&#45;&gt;WorkHours -->
<g id="edge21" class="edge">
<title>Gender&#45;&gt;WorkHours</title>
<path fill="none" stroke="black" d="M384.09,-295.27C348.86,-283.58 289.39,-263.85 248.13,-250.16"/>
<polygon fill="black" stroke="black" points="249.17,-246.82 238.58,-246.99 246.97,-253.46 249.17,-246.82"/>
</g>
<!-- Race -->
<g id="node6" class="node">
<title>Race</title>
<ellipse fill="none" stroke="black" cx="224.43" cy="-306" rx="28.7" ry="18"/>
<text text-anchor="middle" x="224.43" y="-302.3" font-family="Times New Roman,serif" font-size="14.00">Race</text>
</g>
<!-- Race&#45;&gt;Dropout -->
<g id="edge5" class="edge">
<title>Race&#45;&gt;Dropout</title>
<path fill="none" stroke="black" d="M202.33,-294.56C178.35,-282.84 142.16,-263.92 132.43,-252 111.09,-225.88 113.83,-213.3 108.43,-180 100.74,-132.62 87.83,-115.36 108.43,-72 115.07,-58 127.43,-46.48 139.6,-37.8"/>
<polygon fill="black" stroke="black" points="141.55,-40.71 147.92,-32.24 137.66,-34.88 141.55,-40.71"/>
</g>
<!-- Race&#45;&gt;AvailableTime -->
<g id="edge22" class="edge">
<title>Race&#45;&gt;AvailableTime</title>
<path fill="none" stroke="black" d="M202.58,-294.15C180.33,-282.59 148.16,-264.29 141.43,-252 133.74,-237.97 133.94,-230.14 141.43,-216 148.97,-201.76 162.24,-190.63 175.73,-182.33"/>
<polygon fill="black" stroke="black" points="177.62,-185.28 184.56,-177.28 174.14,-179.21 177.62,-185.28"/>
</g>
<!-- Race&#45;&gt;Preferences -->
<g id="edge13" class="edge">
<title>Race&#45;&gt;Preferences</title>
<path fill="none" stroke="black" d="M238.51,-290.07C261.71,-265.49 308.12,-216.31 335.91,-186.86"/>
<polygon fill="black" stroke="black" points="338.57,-189.14 342.89,-179.47 333.48,-184.34 338.57,-189.14"/>
</g>
<!-- Race&#45;&gt;WorkHours -->
<g id="edge20" class="edge">
<title>Race&#45;&gt;WorkHours</title>
<path fill="none" stroke="black" d="M219.1,-288.05C216.65,-280.26 213.68,-270.82 210.94,-262.08"/>
<polygon fill="black" stroke="black" points="214.19,-260.77 207.86,-252.28 207.52,-262.86 214.19,-260.77"/>
</g>
<!-- Academics -->
<g id="node7" class="node">
<title>Academics</title>
<ellipse fill="none" stroke="black" cx="127.43" cy="-306" rx="50.09" ry="18"/>
<text text-anchor="middle" x="127.43" y="-302.3" font-family="Times New Roman,serif" font-size="14.00">Academics</text>
</g>
<!-- Academics&#45;&gt;Dropout -->
<g id="edge6" class="edge">
<title>Academics&#45;&gt;Dropout</title>
<path fill="none" stroke="black" d="M89.11,-294.13C68.42,-286.1 44.67,-272.85 32.43,-252 -8.08,-183.01 -13.12,-137.77 32.43,-72 52.91,-42.41 92.11,-29.32 123.99,-23.54"/>
<polygon fill="black" stroke="black" points="124.74,-26.96 134.05,-21.91 123.62,-20.05 124.74,-26.96"/>
</g>
<!-- Academics&#45;&gt;WorkHours -->
<g id="edge19" class="edge">
<title>Academics&#45;&gt;WorkHours</title>
<path fill="none" stroke="black" d="M144.82,-288.76C154.57,-279.66 166.9,-268.16 177.64,-258.13"/>
<polygon fill="black" stroke="black" points="180.2,-260.53 185.13,-251.15 175.43,-255.41 180.2,-260.53"/>
</g>
<!-- InternetAccess -->
<g id="node8" class="node">
<title>InternetAccess</title>
<ellipse fill="none" stroke="black" cx="588.43" cy="-162" rx="63.09" ry="18"/>
<text text-anchor="middle" x="588.43" y="-158.3" font-family="Times New Roman,serif" font-size="14.00">InternetAccess</text>
</g>
<!-- InternetAccess&#45;&gt;OnlineClass -->
<g id="edge8" class="edge">
<title>InternetAccess&#45;&gt;OnlineClass</title>
<path fill="none" stroke="black" d="M543.37,-149.36C495.26,-136.93 419.14,-117.27 368.75,-104.26"/>
<polygon fill="black" stroke="black" points="369.58,-100.86 359.03,-101.75 367.83,-107.64 369.58,-100.86"/>
</g>
<!-- Preferences&#45;&gt;OnlineClass -->
<g id="edge9" class="edge">
<title>Preferences&#45;&gt;OnlineClass</title>
<path fill="none" stroke="black" d="M348.5,-144.05C343.67,-135.8 337.75,-125.7 332.38,-116.54"/>
<polygon fill="black" stroke="black" points="335.33,-114.65 327.26,-107.79 329.29,-118.19 335.33,-114.65"/>
</g>
<!-- Location -->
<g id="node10" class="node">
<title>Location</title>
<ellipse fill="none" stroke="black" cx="614.43" cy="-234" rx="42.49" ry="18"/>
<text text-anchor="middle" x="614.43" y="-230.3" font-family="Times New Roman,serif" font-size="14.00">Location</text>
</g>
<!-- Location&#45;&gt;InternetAccess -->
<g id="edge14" class="edge">
<title>Location&#45;&gt;InternetAccess</title>
<path fill="none" stroke="black" d="M608.13,-216.05C605.21,-208.18 601.66,-198.62 598.38,-189.79"/>
<polygon fill="black" stroke="black" points="601.61,-188.43 594.84,-180.28 595.04,-190.87 601.61,-188.43"/>
</g>
<!-- SES&#45;&gt;Preferences -->
<g id="edge17" class="edge">
<title>SES&#45;&gt;Preferences</title>
<path fill="none" stroke="black" d="M504.98,-223.7C478.26,-212.64 433.08,-193.92 399.94,-180.19"/>
<polygon fill="black" stroke="black" points="401.08,-176.88 390.5,-176.29 398.4,-183.35 401.08,-176.88"/>
</g>
<!-- WorkHours&#45;&gt;AvailableTime -->
<g id="edge18" class="edge">
<title>WorkHours&#45;&gt;AvailableTime</title>
<path fill="none" stroke="black" d="M206.54,-216.05C208.43,-208.26 210.73,-198.82 212.85,-190.08"/>
<polygon fill="black" stroke="black" points="216.27,-190.82 215.23,-180.28 209.47,-189.17 216.27,-190.82"/>
</g>
<!-- U1 -->
<g id="node13" class="node">
<title>U1</title>
<ellipse fill="none" stroke="black" stroke-dasharray="5,2" cx="195.43" cy="-378" rx="27" ry="18"/>
<text text-anchor="middle" x="195.43" y="-374.3" font-family="Times New Roman,serif" font-size="14.00">U1</text>
</g>
<!-- U1&#45;&gt;Race -->
<g id="edge24" class="edge">
<title>U1&#45;&gt;Race</title>
<path fill="none" stroke="black" d="M202.3,-360.41C205.64,-352.34 209.75,-342.43 213.51,-333.35"/>
<polygon fill="black" stroke="black" points="216.81,-334.53 217.4,-323.96 210.34,-331.86 216.81,-334.53"/>
</g>
<!-- U1&#45;&gt;Academics -->
<g id="edge25" class="edge">
<title>U1&#45;&gt;Academics</title>
<path fill="none" stroke="black" d="M181.34,-362.5C172.38,-353.28 160.59,-341.14 150.31,-330.56"/>
<polygon fill="black" stroke="black" points="152.64,-327.93 143.16,-323.2 147.62,-332.81 152.64,-327.93"/>
</g>
<!-- U2 -->
<g id="node14" class="node">
<title>U2</title>
<ellipse fill="none" stroke="black" stroke-dasharray="5,2" cx="366.43" cy="-378" rx="27" ry="18"/>
<text text-anchor="middle" x="366.43" y="-374.3" font-family="Times New Roman,serif" font-size="14.00">U2</text>
</g>
<!-- U2&#45;&gt;Race -->
<g id="edge26" class="edge">
<title>U2&#45;&gt;Race</title>
<path fill="none" stroke="black" d="M345.17,-366.52C321.36,-354.78 282.56,-335.66 255.38,-322.26"/>
<polygon fill="black" stroke="black" points="256.81,-319.06 246.3,-317.78 253.72,-325.34 256.81,-319.06"/>
</g>
<!-- U2&#45;&gt;SES -->
<g id="edge27" class="edge">
<title>U2&#45;&gt;SES</title>
<path fill="none" stroke="black" d="M388.41,-367.35C408.08,-358.04 437.03,-342.65 458.43,-324 480.05,-305.15 499.56,-278.66 512.27,-259.49"/>
<polygon fill="black" stroke="black" points="515.28,-261.28 517.78,-250.99 509.4,-257.48 515.28,-261.28"/>
</g>
<!-- U3 -->
<g id="node15" class="node">
<title>U3</title>
<ellipse fill="none" stroke="black" stroke-dasharray="5,2" cx="285.43" cy="-378" rx="27" ry="18"/>
<text text-anchor="middle" x="285.43" y="-374.3" font-family="Times New Roman,serif" font-size="14.00">U3</text>
</g>
<!-- U3&#45;&gt;Gender -->
<g id="edge28" class="edge">
<title>U3&#45;&gt;Gender</title>
<path fill="none" stroke="black" d="M305.71,-365.91C325.87,-354.88 357.12,-337.79 380.78,-324.85"/>
<polygon fill="black" stroke="black" points="382.67,-327.81 389.76,-319.94 379.31,-321.67 382.67,-327.81"/>
</g>
<!-- U3&#45;&gt;Academics -->
<g id="edge29" class="edge">
<title>U3&#45;&gt;Academics</title>
<path fill="none" stroke="black" d="M263.46,-367.27C238.67,-356.28 197.83,-338.19 167.36,-324.69"/>
<polygon fill="black" stroke="black" points="168.43,-321.34 157.87,-320.49 165.59,-327.74 168.43,-321.34"/>
</g>
<!-- U4 -->
<g id="node16" class="node">
<title>U4</title>
<ellipse fill="none" stroke="black" stroke-dasharray="5,2" cx="442.43" cy="-378" rx="27" ry="18"/>
<text text-anchor="middle" x="442.43" y="-374.3" font-family="Times New Roman,serif" font-size="14.00">U4</text>
</g>
<!-- U4&#45;&gt;Gender -->
<g id="edge30" class="edge">
<title>U4&#45;&gt;Gender</title>
<path fill="none" stroke="black" d="M435.55,-360.41C432.21,-352.34 428.1,-342.43 424.34,-333.35"/>
<polygon fill="black" stroke="black" points="427.51,-331.86 420.45,-323.96 421.04,-334.53 427.51,-331.86"/>
</g>
<!-- U4&#45;&gt;SES -->
<g id="edge31" class="edge">
<title>U4&#45;&gt;SES</title>
<path fill="none" stroke="black" d="M459.7,-364.09C471.75,-354.27 487.42,-339.8 497.43,-324 509.51,-304.91 517.31,-280.41 521.91,-261.95"/>
<polygon fill="black" stroke="black" points="525.34,-262.66 524.21,-252.13 518.52,-261.07 525.34,-262.66"/>
</g>
<!-- U5 -->
<g id="node17" class="node">
<title>U5</title>
<ellipse fill="none" stroke="black" stroke-dasharray="5,2" cx="596.43" cy="-306" rx="27" ry="18"/>
<text text-anchor="middle" x="596.43" y="-302.3" font-family="Times New Roman,serif" font-size="14.00">U5</text>
</g>
<!-- U5&#45;&gt;Location -->
<g id="edge32" class="edge">
<title>U5&#45;&gt;Location</title>
<path fill="none" stroke="black" d="M600.78,-288.05C602.79,-280.26 605.21,-270.82 607.46,-262.08"/>
<polygon fill="black" stroke="black" points="610.88,-262.83 609.98,-252.28 604.1,-261.09 610.88,-262.83"/>
</g>
<!-- U5&#45;&gt;SES -->
<g id="edge33" class="edge">
<title>U5&#45;&gt;SES</title>
<path fill="none" stroke="black" d="M582.13,-290.5C572.51,-280.73 559.65,-267.69 548.82,-256.7"/>
<polygon fill="black" stroke="black" points="551.22,-254.15 541.7,-249.49 546.23,-259.06 551.22,-254.15"/>
</g>
</g>
</svg>
