<?xml version="1.0" encoding="UTF-8" standalone="no"?>
<!DOCTYPE svg PUBLIC "-//W3C//DTD SVG 1.1//EN"
 "http://www.w3.org/Graphics/SVG/1.1/DTD/svg11.dtd">
<!-- Generated by graphviz version 2.50.0 (0)
 -->
<!-- Pages: 1 -->
<svg width="691pt" height="188pt"
 viewBox="0.00 0.00 691.09 188.00" xmlns="http://www.w3.org/2000/svg" xmlns:xlink="http://www.w3.org/1999/xlink">
<g id="graph0" class="graph" transform="scale(1 1) rotate(0) translate(4 184)">
<polygon fill="white" stroke="transparent" points="-4,4 -4,-184 687.09,-184 687.09,4 -4,4"/>
<!-- OnlineClass -->
<g id="node1" class="node">
<title>OnlineClass</title>
<ellipse fill="none" stroke="black" cx="222.04" cy="-90" rx="53.89" ry="18"/>
<text text-anchor="middle" x="222.04" y="-86.3" font-family="Times New Roman,serif" font-size="14.00">OnlineClass</text>
</g>
<!-- Dropout -->
<g id="node2" class="node">
<title>Dropout</title>
<ellipse fill="none" stroke="black" cx="412.04" cy="-18" rx="40.09" ry="18"/>
<text text-anchor="middle" x="412.04" y="-14.3" font-family="Times New Roman,serif" font-size="14.00">Dropout</text>
</g>
<!-- OnlineClass&#45;&gt;Dropout -->
<g id="edge1" class="edge">
<title>OnlineClass&#45;&gt;Dropout</title>
<path fill="none" stroke="black" stroke-dasharray="5,2" d="M256.89,-76.16C289.46,-64.16 338.05,-46.26 372.15,-33.7"/>
<polygon fill="black" stroke="black" points="373.63,-36.88 381.8,-30.14 371.21,-30.32 373.63,-36.88"/>
</g>
<!-- AvailableTime -->
<g id="node3" class="node">
<title>AvailableTime</title>
<ellipse fill="none" stroke="black" cx="330.04" cy="-162" rx="63.89" ry="18"/>
<text text-anchor="middle" x="330.04" y="-158.3" font-family="Times New Roman,serif" font-size="14.00">AvailableTime</text>
</g>
<!-- AvailableTime&#45;&gt;OnlineClass -->
<g id="edge7" class="edge">
<title>AvailableTime&#45;&gt;OnlineClass</title>
<path fill="none" stroke="black" d="M305.81,-145.29C290.69,-135.5 271.06,-122.77 254.6,-112.1"/>
<polygon fill="black" stroke="black" points="256.12,-108.92 245.83,-106.42 252.32,-114.79 256.12,-108.92"/>
</g>
<!-- AvailableTime&#45;&gt;Dropout -->
<g id="edge2" class="edge">
<title>AvailableTime&#45;&gt;Dropout</title>
<path fill="none" stroke="black" d="M327.01,-143.69C324.61,-124.79 323.47,-94.24 336.04,-72 344.76,-56.58 360.05,-44.61 374.64,-35.99"/>
<polygon fill="black" stroke="black" points="376.51,-38.95 383.56,-31.05 373.12,-32.83 376.51,-38.95"/>
</g>
<!-- Age -->
<g id="node4" class="node">
<title>Age</title>
<ellipse fill="none" stroke="black" cx="372.04" cy="-90" rx="27" ry="18"/>
<text text-anchor="middle" x="372.04" y="-86.3" font-family="Times New Roman,serif" font-size="14.00">Age</text>
</g>
<!-- Age&#45;&gt;Dropout -->
<g id="edge3" class="edge">
<title>Age&#45;&gt;Dropout</title>
<path fill="none" stroke="black" d="M381.32,-72.76C386.1,-64.4 392.04,-54.02 397.41,-44.61"/>
<polygon fill="black" stroke="black" points="400.62,-46.05 402.54,-35.63 394.54,-42.58 400.62,-46.05"/>
</g>
<!-- Gender -->
<g id="node5" class="node">
<title>Gender</title>
<ellipse fill="none" stroke="black" cx="453.04" cy="-90" rx="36.29" ry="18"/>
<text text-anchor="middle" x="453.04" y="-86.3" font-family="Times New Roman,serif" font-size="14.00">Gender</text>
</g>
<!-- Gender&#45;&gt;Dropout -->
<g id="edge4" class="edge">
<title>Gender&#45;&gt;Dropout</title>
<path fill="none" stroke="black" d="M443.33,-72.41C438.5,-64.16 432.55,-54.01 427.14,-44.78"/>
<polygon fill="black" stroke="black" points="430.05,-42.82 421.98,-35.96 424.01,-46.35 430.05,-42.82"/>
</g>
<!-- Race -->
<g id="node6" class="node">
<title>Race</title>
<ellipse fill="none" stroke="black" cx="536.04" cy="-90" rx="28.7" ry="18"/>
<text text-anchor="middle" x="536.04" y="-86.3" font-family="Times New Roman,serif" font-size="14.00">Race</text>
</g>
<!-- Race&#45;&gt;Dropout -->
<g id="edge5" class="edge">
<title>Race&#45;&gt;Dropout</title>
<path fill="none" stroke="black" d="M515.29,-77.28C496.14,-66.47 467.39,-50.24 445.08,-37.65"/>
<polygon fill="black" stroke="black" points="446.7,-34.55 436.27,-32.68 443.26,-40.64 446.7,-34.55"/>
</g>
<!-- Academics -->
<g id="node7" class="node">
<title>Academics</title>
<ellipse fill="none" stroke="black" cx="633.04" cy="-90" rx="50.09" ry="18"/>
<text text-anchor="middle" x="633.04" y="-86.3" font-family="Times New Roman,serif" font-size="14.00">Academics</text>
</g>
<!-- Academics&#45;&gt;Dropout -->
<g id="edge6" class="edge">
<title>Academics&#45;&gt;Dropout</title>
<path fill="none" stroke="black" d="M596.55,-77.44C557.25,-64.99 494.83,-45.22 453.65,-32.18"/>
<polygon fill="black" stroke="black" points="454.52,-28.78 443.93,-29.1 452.4,-35.45 454.52,-28.78"/>
</g>
<!-- InternetAccess -->
<g id="node8" class="node">
<title>InternetAccess</title>
<ellipse fill="none" stroke="black" cx="63.04" cy="-162" rx="63.09" ry="18"/>
<text text-anchor="middle" x="63.04" y="-158.3" font-family="Times New Roman,serif" font-size="14.00">InternetAccess</text>
</g>
<!-- InternetAccess&#45;&gt;OnlineClass -->
<g id="edge8" class="edge">
<title>InternetAccess&#45;&gt;OnlineClass</title>
<path fill="none" stroke="black" d="M95.99,-146.5C120.78,-135.58 154.89,-120.56 181.38,-108.9"/>
<polygon fill="black" stroke="black" points="183.02,-112 190.76,-104.77 180.2,-105.6 183.02,-112"/>
</g>
<!-- Preferences -->
<g id="node9" class="node">
<title>Preferences</title>
<ellipse fill="none" stroke="black" cx="196.04" cy="-162" rx="51.99" ry="18"/>
<text text-anchor="middle" x="196.04" y="-158.3" font-family="Times New Roman,serif" font-size="14.00">Preferences</text>
</g>
<!-- Preferences&#45;&gt;OnlineClass -->
<g id="edge9" class="edge">
<title>Preferences&#45;&gt;OnlineClass</title>
<path fill="none" stroke="black" d="M202.34,-144.05C205.26,-136.18 208.82,-126.62 212.09,-117.79"/>
<polygon fill="black" stroke="black" points="215.43,-118.87 215.63,-108.28 208.86,-116.43 215.43,-118.87"/>
</g>
</g>
</svg>
