<?xml version="1.0" encoding="UTF-8" standalone="no"?>
<!DOCTYPE svg PUBLIC "-//W3C//DTD SVG 1.1//EN"
 "http://www.w3.org/Graphics/SVG/1.1/DTD/svg11.dtd">
<!-- Generated by graphviz version 2.50.0 (0)
 -->
<!-- Pages: 1 -->
<svg width="174pt" height="188pt"
 viewBox="0.00 0.00 174.00 188.00" xmlns="http://www.w3.org/2000/svg" xmlns:xlink="http://www.w3.org/1999/xlink">
<g id="graph0" class="graph" transform="scale(1 1) rotate(0) translate(4 184)">
<polygon fill="white" stroke="transparent" points="-4,4 -4,-184 170,-184 170,4 -4,4"/>
<!-- A -->
<g id="node1" class="node">
<title>A</title>
<ellipse fill="none" stroke="black" cx="27" cy="-162" rx="27" ry="18"/>
<text text-anchor="middle" x="27" y="-158.3" font-family="Times New Roman,serif" font-size="14.00">A</text>
</g>
<!-- B -->
<g id="node2" class="node">
<title>B</title>
<ellipse fill="none" stroke="black" cx="27" cy="-90" rx="27" ry="18"/>
<text text-anchor="middle" x="27" y="-86.3" font-family="Times New Roman,serif" font-size="14.00">B</text>
</g>
<!-- A&#45;&gt;B -->
<g id="edge1" class="edge">
<title>A&#45;&gt;B</title>
<path fill="none" stroke="black" d="M21.16,-144.41C20.3,-136.51 20.05,-126.85 20.41,-117.94"/>
<polygon fill="black" stroke="black" points="23.9,-118.18 21.12,-107.96 16.92,-117.68 23.9,-118.18"/>
</g>
<!-- B&#45;&gt;A -->
<g id="edge2" class="edge">
<title>B&#45;&gt;A</title>
<path fill="none" stroke="black" d="M32.88,-107.96C33.71,-115.83 33.95,-125.37 33.58,-134.19"/>
<polygon fill="black" stroke="black" points="30.07,-134.18 32.84,-144.41 37.06,-134.69 30.07,-134.18"/>
</g>
<!-- X -->
<g id="node3" class="node">
<title>X</title>
<ellipse fill="none" stroke="black" cx="126" cy="-162" rx="27" ry="18"/>
<text text-anchor="middle" x="126" y="-158.3" font-family="Times New Roman,serif" font-size="14.00">X</text>
</g>
<!-- Y -->
<g id="node4" class="node">
<title>Y</title>
<ellipse fill="none" stroke="black" cx="112" cy="-90" rx="27" ry="18"/>
<text text-anchor="middle" x="112" y="-86.3" font-family="Times New Roman,serif" font-size="14.00">Y</text>
</g>
<!-- X&#45;&gt;Y -->
<g id="edge3" class="edge">
<title>X&#45;&gt;Y</title>
<path fill="none" stroke="black" d="M122.61,-144.05C121.07,-136.35 119.21,-127.03 117.47,-118.36"/>
<polygon fill="black" stroke="black" points="120.85,-117.39 115.46,-108.28 113.98,-118.77 120.85,-117.39"/>
</g>
<!-- Z -->
<g id="node5" class="node">
<title>Z</title>
<ellipse fill="none" stroke="black" cx="139" cy="-18" rx="27" ry="18"/>
<text text-anchor="middle" x="139" y="-14.3" font-family="Times New Roman,serif" font-size="14.00">Z</text>
</g>
<!-- Y&#45;&gt;Z -->
<g id="edge4" class="edge">
<title>Y&#45;&gt;Z</title>
<path fill="none" stroke="black" d="M118.4,-72.41C121.51,-64.34 125.33,-54.43 128.83,-45.35"/>
<polygon fill="black" stroke="black" points="132.13,-46.55 132.46,-35.96 125.6,-44.03 132.13,-46.55"/>
</g>
<!-- Z&#45;&gt;X -->
<g id="edge5" class="edge">
<title>Z&#45;&gt;X</title>
<path fill="none" stroke="black" d="M143.66,-35.87C147.95,-53.88 152.95,-83.17 148,-108 146.13,-117.37 142.58,-127.16 138.86,-135.74"/>
<polygon fill="black" stroke="black" points="135.68,-134.27 134.68,-144.82 142.04,-137.2 135.68,-134.27"/>
</g>
</g>
</svg>
