<?xml version="1.0" encoding="UTF-8" standalone="no"?>
<!DOCTYPE svg PUBLIC "-//W3C//DTD SVG 1.1//EN"
 "http://www.w3.org/Graphics/SVG/1.1/DTD/svg11.dtd">
<!-- Generated by graphviz version 2.50.0 (0)
 -->
<!-- Pages: 1 -->
<svg width="611pt" height="260pt"
 viewBox="0.00 0.00 611.01 260.00" xmlns="http://www.w3.org/2000/svg" xmlns:xlink="http://www.w3.org/1999/xlink">
<g id="graph0" class="graph" transform="scale(1 1) rotate(0) translate(4 256)">
<polygon fill="white" stroke="transparent" points="-4,4 -4,-256 607.01,-256 607.01,4 -4,4"/>
<!-- OnlineClass -->
<g id="node1" class="node">
<title>OnlineClass</title>
<ellipse fill="none" stroke="black" cx="268.96" cy="-90" rx="53.89" ry="18"/>
<text text-anchor="middle" x="268.96" y="-86.3" font-family="Times New Roman,serif" font-size="14.00">OnlineClass</text>
</g>
<!-- Dropout -->
<g id="node2" class="node">
<title>Dropout</title>
<ellipse fill="none" stroke="black" cx="380.96" cy="-18" rx="40.09" ry="18"/>
<text text-anchor="middle" x="380.96" y="-14.3" font-family="Times New Roman,serif" font-size="14.00">Dropout</text>
</g>
<!-- OnlineClass&#45;&gt;Dropout -->
<g id="edge1" class="edge">
<title>OnlineClass&#45;&gt;Dropout</title>
<path fill="none" stroke="black" stroke-dasharray="5,2" d="M293.27,-73.81C309.7,-63.54 331.57,-49.87 349.36,-38.75"/>
<polygon fill="black" stroke="black" points="351.61,-41.47 358.24,-33.21 347.9,-35.54 351.61,-41.47"/>
</g>
<!-- AvailableTime -->
<g id="node3" class="node">
<title>AvailableTime</title>
<ellipse fill="none" stroke="black" cx="78.96" cy="-162" rx="63.89" ry="18"/>
<text text-anchor="middle" x="78.96" y="-158.3" font-family="Times New Roman,serif" font-size="14.00">AvailableTime</text>
</g>
<!-- AvailableTime&#45;&gt;OnlineClass -->
<g id="edge7" class="edge">
<title>AvailableTime&#45;&gt;OnlineClass</title>
<path fill="none" stroke="black" d="M116.05,-147.34C147.21,-135.86 191.81,-119.43 224.81,-107.27"/>
<polygon fill="black" stroke="black" points="226.04,-110.54 234.21,-103.8 223.62,-103.98 226.04,-110.54"/>
</g>
<!-- AvailableTime&#45;&gt;Dropout -->
<g id="edge2" class="edge">
<title>AvailableTime&#45;&gt;Dropout</title>
<path fill="none" stroke="black" d="M97.98,-144.74C121.8,-125.08 164.56,-92.14 205.96,-72 247.84,-51.63 299.2,-37.2 335.41,-28.59"/>
<polygon fill="black" stroke="black" points="336.25,-31.99 345.2,-26.32 334.67,-25.17 336.25,-31.99"/>
</g>
<!-- Age -->
<g id="node4" class="node">
<title>Age</title>
<ellipse fill="none" stroke="black" cx="78.96" cy="-234" rx="27" ry="18"/>
<text text-anchor="middle" x="78.96" y="-230.3" font-family="Times New Roman,serif" font-size="14.00">Age</text>
</g>
<!-- Age&#45;&gt;Dropout -->
<g id="edge3" class="edge">
<title>Age&#45;&gt;Dropout</title>
<path fill="none" stroke="black" d="M56.57,-223.69C39.24,-215.14 16.49,-200.65 5.96,-180 -1.3,-165.75 -2.33,-157.68 5.96,-144 40.72,-86.66 240.94,-44.02 333.75,-27.05"/>
<polygon fill="black" stroke="black" points="334.5,-30.47 343.72,-25.25 333.26,-23.58 334.5,-30.47"/>
</g>
<!-- Age&#45;&gt;AvailableTime -->
<g id="edge10" class="edge">
<title>Age&#45;&gt;AvailableTime</title>
<path fill="none" stroke="black" d="M78.96,-215.7C78.96,-207.98 78.96,-198.71 78.96,-190.11"/>
<polygon fill="black" stroke="black" points="82.46,-190.1 78.96,-180.1 75.46,-190.1 82.46,-190.1"/>
</g>
<!-- Preferences -->
<g id="node9" class="node">
<title>Preferences</title>
<ellipse fill="none" stroke="black" cx="212.96" cy="-162" rx="51.99" ry="18"/>
<text text-anchor="middle" x="212.96" y="-158.3" font-family="Times New Roman,serif" font-size="14.00">Preferences</text>
</g>
<!-- Age&#45;&gt;Preferences -->
<g id="edge11" class="edge">
<title>Age&#45;&gt;Preferences</title>
<path fill="none" stroke="black" d="M99.61,-222.22C120.05,-211.54 151.78,-194.96 176.48,-182.06"/>
<polygon fill="black" stroke="black" points="178.32,-185.05 185.56,-177.32 175.08,-178.84 178.32,-185.05"/>
</g>
<!-- Gender -->
<g id="node5" class="node">
<title>Gender</title>
<ellipse fill="none" stroke="black" cx="257.96" cy="-234" rx="36.29" ry="18"/>
<text text-anchor="middle" x="257.96" y="-230.3" font-family="Times New Roman,serif" font-size="14.00">Gender</text>
</g>
<!-- Gender&#45;&gt;Dropout -->
<g id="edge4" class="edge">
<title>Gender&#45;&gt;Dropout</title>
<path fill="none" stroke="black" d="M294.56,-232.43C332.46,-229.65 389.95,-218.79 417.96,-180 447.59,-138.98 418.81,-78.04 398.06,-44.11"/>
<polygon fill="black" stroke="black" points="400.78,-41.87 392.47,-35.3 394.87,-45.62 400.78,-41.87"/>
</g>
<!-- Gender&#45;&gt;Preferences -->
<g id="edge12" class="edge">
<title>Gender&#45;&gt;Preferences</title>
<path fill="none" stroke="black" d="M247.3,-216.41C241.94,-208.08 235.33,-197.8 229.35,-188.49"/>
<polygon fill="black" stroke="black" points="232.22,-186.48 223.86,-179.96 226.33,-190.26 232.22,-186.48"/>
</g>
<!-- Race -->
<g id="node6" class="node">
<title>Race</title>
<ellipse fill="none" stroke="black" cx="429.96" cy="-234" rx="28.7" ry="18"/>
<text text-anchor="middle" x="429.96" y="-230.3" font-family="Times New Roman,serif" font-size="14.00">Race</text>
</g>
<!-- Race&#45;&gt;Dropout -->
<g id="edge5" class="edge">
<title>Race&#45;&gt;Dropout</title>
<path fill="none" stroke="black" d="M437.97,-216.46C451.45,-186.1 474.93,-120.21 450.96,-72 443.62,-57.22 429.96,-45.46 416.65,-36.81"/>
<polygon fill="black" stroke="black" points="418.38,-33.77 408.02,-31.58 414.75,-39.76 418.38,-33.77"/>
</g>
<!-- Race&#45;&gt;Preferences -->
<g id="edge13" class="edge">
<title>Race&#45;&gt;Preferences</title>
<path fill="none" stroke="black" d="M405.07,-224.97C369.67,-213.55 304.16,-192.42 259.58,-178.04"/>
<polygon fill="black" stroke="black" points="260.44,-174.64 249.84,-174.9 258.29,-181.3 260.44,-174.64"/>
</g>
<!-- Academics -->
<g id="node7" class="node">
<title>Academics</title>
<ellipse fill="none" stroke="black" cx="552.96" cy="-90" rx="50.09" ry="18"/>
<text text-anchor="middle" x="552.96" y="-86.3" font-family="Times New Roman,serif" font-size="14.00">Academics</text>
</g>
<!-- Academics&#45;&gt;Dropout -->
<g id="edge6" class="edge">
<title>Academics&#45;&gt;Dropout</title>
<path fill="none" stroke="black" d="M521.01,-76C492.26,-64.3 449.95,-47.08 419.37,-34.63"/>
<polygon fill="black" stroke="black" points="420.46,-31.3 409.88,-30.77 417.82,-37.78 420.46,-31.3"/>
</g>
<!-- InternetAccess -->
<g id="node8" class="node">
<title>InternetAccess</title>
<ellipse fill="none" stroke="black" cx="345.96" cy="-162" rx="63.09" ry="18"/>
<text text-anchor="middle" x="345.96" y="-158.3" font-family="Times New Roman,serif" font-size="14.00">InternetAccess</text>
</g>
<!-- InternetAccess&#45;&gt;OnlineClass -->
<g id="edge8" class="edge">
<title>InternetAccess&#45;&gt;OnlineClass</title>
<path fill="none" stroke="black" d="M327.72,-144.41C317.77,-135.37 305.3,-124.03 294.41,-114.13"/>
<polygon fill="black" stroke="black" points="296.57,-111.37 286.81,-107.23 291.86,-116.55 296.57,-111.37"/>
</g>
<!-- Preferences&#45;&gt;OnlineClass -->
<g id="edge9" class="edge">
<title>Preferences&#45;&gt;OnlineClass</title>
<path fill="none" stroke="black" d="M226.23,-144.41C233.14,-135.78 241.71,-125.06 249.37,-115.5"/>
<polygon fill="black" stroke="black" points="252.27,-117.47 255.79,-107.47 246.81,-113.09 252.27,-117.47"/>
</g>
</g>
</svg>
