<?xml version="1.0" encoding="UTF-8" standalone="no"?>
<!DOCTYPE svg PUBLIC "-//W3C//DTD SVG 1.1//EN"
 "http://www.w3.org/Graphics/SVG/1.1/DTD/svg11.dtd">
<!-- Generated by graphviz version 2.50.0 (0)
 -->
<!-- Pages: 1 -->
<svg width="387pt" height="188pt"
 viewBox="0.00 0.00 387.10 188.00" xmlns="http://www.w3.org/2000/svg" xmlns:xlink="http://www.w3.org/1999/xlink">
<g id="graph0" class="graph" transform="scale(1 1) rotate(0) translate(4 184)">
<polygon fill="white" stroke="transparent" points="-4,4 -4,-184 383.1,-184 383.1,4 -4,4"/>
<!-- X -->
<g id="node1" class="node">
<title>X</title>
<ellipse fill="none" stroke="black" cx="68" cy="-162" rx="27" ry="18"/>
<text text-anchor="middle" x="68" y="-158.3" font-family="Times New Roman,serif" font-size="14.00">X</text>
</g>
<!-- T -->
<g id="node2" class="node">
<title>T</title>
<ellipse fill="none" stroke="black" cx="27" cy="-90" rx="27" ry="18"/>
<text text-anchor="middle" x="27" y="-86.3" font-family="Times New Roman,serif" font-size="14.00">T</text>
</g>
<!-- X&#45;&gt;T -->
<g id="edge1" class="edge">
<title>X&#45;&gt;T</title>
<path fill="none" stroke="black" d="M58.49,-144.76C53.47,-136.19 47.2,-125.49 41.58,-115.9"/>
<polygon fill="black" stroke="black" points="44.53,-114.01 36.46,-107.15 38.49,-117.55 44.53,-114.01"/>
</g>
<!-- Y -->
<g id="node3" class="node">
<title>Y</title>
<ellipse fill="none" stroke="black" cx="68" cy="-18" rx="27" ry="18"/>
<text text-anchor="middle" x="68" y="-14.3" font-family="Times New Roman,serif" font-size="14.00">Y</text>
</g>
<!-- X&#45;&gt;Y -->
<g id="edge2" class="edge">
<title>X&#45;&gt;Y</title>
<path fill="none" stroke="black" d="M68,-143.87C68,-119.67 68,-75.21 68,-46.39"/>
<polygon fill="black" stroke="black" points="71.5,-46.19 68,-36.19 64.5,-46.19 71.5,-46.19"/>
</g>
<!-- T&#45;&gt;Y -->
<g id="edge3" class="edge">
<title>T&#45;&gt;Y</title>
<path fill="none" stroke="black" d="M36.51,-72.76C41.53,-64.19 47.8,-53.49 53.42,-43.9"/>
<polygon fill="black" stroke="black" points="56.51,-45.55 58.54,-35.15 50.47,-42.01 56.51,-45.55"/>
</g>
<!-- rain -->
<g id="node4" class="node">
<title>rain</title>
<ellipse fill="none" stroke="black" cx="166" cy="-162" rx="27" ry="18"/>
<text text-anchor="middle" x="166" y="-158.3" font-family="Times New Roman,serif" font-size="14.00">rain</text>
</g>
<!-- umbrella -->
<g id="node5" class="node">
<title>umbrella</title>
<ellipse fill="none" stroke="black" cx="153" cy="-90" rx="42.49" ry="18"/>
<text text-anchor="middle" x="153" y="-86.3" font-family="Times New Roman,serif" font-size="14.00">umbrella</text>
</g>
<!-- rain&#45;&gt;umbrella -->
<g id="edge4" class="edge">
<title>rain&#45;&gt;umbrella</title>
<path fill="none" stroke="black" d="M162.85,-144.05C161.42,-136.35 159.69,-127.03 158.08,-118.36"/>
<polygon fill="black" stroke="black" points="161.48,-117.47 156.21,-108.28 154.59,-118.75 161.48,-117.47"/>
</g>
<!-- wet -->
<g id="node6" class="node">
<title>wet</title>
<ellipse fill="none" stroke="black" cx="167" cy="-18" rx="27" ry="18"/>
<text text-anchor="middle" x="167" y="-14.3" font-family="Times New Roman,serif" font-size="14.00">wet</text>
</g>
<!-- rain&#45;&gt;wet -->
<g id="edge5" class="edge">
<title>rain&#45;&gt;wet</title>
<path fill="none" stroke="black" d="M180.11,-146.64C188.86,-136.7 199.29,-122.66 204,-108 208.9,-92.77 208.8,-87.26 204,-72 200.58,-61.13 194.05,-50.54 187.42,-41.73"/>
<polygon fill="black" stroke="black" points="190.11,-39.48 181.13,-33.86 184.64,-43.86 190.11,-39.48"/>
</g>
<!-- umbrella&#45;&gt;wet -->
<g id="edge6" class="edge">
<title>umbrella&#45;&gt;wet</title>
<path fill="none" stroke="black" d="M156.39,-72.05C157.93,-64.35 159.79,-55.03 161.53,-46.36"/>
<polygon fill="black" stroke="black" points="165.02,-46.77 163.54,-36.28 158.15,-45.39 165.02,-46.77"/>
</g>
<!-- severeness -->
<g id="node7" class="node">
<title>severeness</title>
<ellipse fill="none" stroke="black" cx="331" cy="-162" rx="48.19" ry="18"/>
<text text-anchor="middle" x="331" y="-158.3" font-family="Times New Roman,serif" font-size="14.00">severeness</text>
</g>
<!-- medicine -->
<g id="node8" class="node">
<title>medicine</title>
<ellipse fill="none" stroke="black" cx="295" cy="-90" rx="43.59" ry="18"/>
<text text-anchor="middle" x="295" y="-86.3" font-family="Times New Roman,serif" font-size="14.00">medicine</text>
</g>
<!-- severeness&#45;&gt;medicine -->
<g id="edge7" class="edge">
<title>severeness&#45;&gt;medicine</title>
<path fill="none" stroke="black" d="M322.29,-144.05C318.08,-135.89 312.95,-125.91 308.28,-116.82"/>
<polygon fill="black" stroke="black" points="311.32,-115.08 303.63,-107.79 305.1,-118.28 311.32,-115.08"/>
</g>
<!-- survived -->
<g id="node9" class="node">
<title>survived</title>
<ellipse fill="none" stroke="black" cx="331" cy="-18" rx="40.89" ry="18"/>
<text text-anchor="middle" x="331" y="-14.3" font-family="Times New Roman,serif" font-size="14.00">survived</text>
</g>
<!-- severeness&#45;&gt;survived -->
<g id="edge8" class="edge">
<title>severeness&#45;&gt;survived</title>
<path fill="none" stroke="black" d="M337.89,-144.14C341.7,-133.88 346.06,-120.41 348,-108 350.47,-92.19 350.47,-87.81 348,-72 346.62,-63.18 344.02,-53.82 341.26,-45.46"/>
<polygon fill="black" stroke="black" points="344.51,-44.13 337.89,-35.86 337.9,-46.45 344.51,-44.13"/>
</g>
<!-- medicine&#45;&gt;survived -->
<g id="edge9" class="edge">
<title>medicine&#45;&gt;survived</title>
<path fill="none" stroke="black" d="M303.71,-72.05C307.92,-63.89 313.05,-53.91 317.72,-44.82"/>
<polygon fill="black" stroke="black" points="320.9,-46.28 322.37,-35.79 314.68,-43.08 320.9,-46.28"/>
</g>
</g>
</svg>
