<?xml version="1.0" encoding="UTF-8" standalone="no"?>
<!DOCTYPE svg PUBLIC "-//W3C//DTD SVG 1.1//EN"
 "http://www.w3.org/Graphics/SVG/1.1/DTD/svg11.dtd">
<!-- Generated by graphviz version 2.50.0 (0)
 -->
<!-- Pages: 1 -->
<svg width="503pt" height="332pt"
 viewBox="0.00 0.00 503.29 332.00" xmlns="http://www.w3.org/2000/svg" xmlns:xlink="http://www.w3.org/1999/xlink">
<g id="graph0" class="graph" transform="scale(1 1) rotate(0) translate(4 328)">
<polygon fill="white" stroke="transparent" points="-4,4 -4,-328 499.29,-328 499.29,4 -4,4"/>
<!-- OnlineClass -->
<g id="node1" class="node">
<title>OnlineClass</title>
<ellipse fill="none" stroke="black" cx="284.25" cy="-90" rx="53.89" ry="18"/>
<text text-anchor="middle" x="284.25" y="-86.3" font-family="Times New Roman,serif" font-size="14.00">OnlineClass</text>
</g>
<!-- Dropout -->
<g id="node2" class="node">
<title>Dropout</title>
<ellipse fill="none" stroke="black" cx="361.25" cy="-18" rx="40.09" ry="18"/>
<text text-anchor="middle" x="361.25" y="-14.3" font-family="Times New Roman,serif" font-size="14.00">Dropout</text>
</g>
<!-- OnlineClass&#45;&gt;Dropout -->
<g id="edge1" class="edge">
<title>OnlineClass&#45;&gt;Dropout</title>
<path fill="none" stroke="black" stroke-dasharray="5,2" d="M302.11,-72.76C312.43,-63.38 325.56,-51.44 336.83,-41.2"/>
<polygon fill="black" stroke="black" points="339.23,-43.74 344.28,-34.43 334.52,-38.56 339.23,-43.74"/>
</g>
<!-- Age -->
<g id="node3" class="node">
<title>Age</title>
<ellipse fill="none" stroke="black" cx="203.25" cy="-234" rx="27" ry="18"/>
<text text-anchor="middle" x="203.25" y="-230.3" font-family="Times New Roman,serif" font-size="14.00">Age</text>
</g>
<!-- Age&#45;&gt;OnlineClass -->
<g id="edge2" class="edge">
<title>Age&#45;&gt;OnlineClass</title>
<path fill="none" stroke="black" d="M208.81,-216.26C215.28,-197.85 226.93,-167.74 241.25,-144 247.27,-134 255.03,-123.85 262.29,-115.15"/>
<polygon fill="black" stroke="black" points="265.17,-117.16 269.03,-107.29 259.86,-112.6 265.17,-117.16"/>
</g>
<!-- Age&#45;&gt;Dropout -->
<g id="edge3" class="edge">
<title>Age&#45;&gt;Dropout</title>
<path fill="none" stroke="black" d="M199.85,-215.84C194.56,-183.89 188.13,-114.66 221.25,-72 242.87,-44.15 280.89,-30.93 311.86,-24.66"/>
<polygon fill="black" stroke="black" points="312.85,-28.04 322.06,-22.79 311.59,-21.15 312.85,-28.04"/>
</g>
<!-- WorkHours -->
<g id="node4" class="node">
<title>WorkHours</title>
<ellipse fill="none" stroke="black" cx="302.25" cy="-162" rx="51.99" ry="18"/>
<text text-anchor="middle" x="302.25" y="-158.3" font-family="Times New Roman,serif" font-size="14.00">WorkHours</text>
</g>
<!-- Age&#45;&gt;WorkHours -->
<g id="edge4" class="edge">
<title>Age&#45;&gt;WorkHours</title>
<path fill="none" stroke="black" d="M221.4,-220.16C235.57,-210.14 255.55,-196.02 272.11,-184.31"/>
<polygon fill="black" stroke="black" points="274.26,-187.08 280.4,-178.45 270.22,-181.36 274.26,-187.08"/>
</g>
<!-- SES -->
<g id="node5" class="node">
<title>SES</title>
<ellipse fill="none" stroke="black" cx="129.25" cy="-162" rx="27" ry="18"/>
<text text-anchor="middle" x="129.25" y="-158.3" font-family="Times New Roman,serif" font-size="14.00">SES</text>
</g>
<!-- Age&#45;&gt;SES -->
<g id="edge5" class="edge">
<title>Age&#45;&gt;SES</title>
<path fill="none" stroke="black" d="M188.27,-218.83C177.74,-208.87 163.46,-195.37 151.59,-184.14"/>
<polygon fill="black" stroke="black" points="153.87,-181.47 144.2,-177.14 149.06,-186.56 153.87,-181.47"/>
</g>
<!-- WorkHours&#45;&gt;OnlineClass -->
<g id="edge7" class="edge">
<title>WorkHours&#45;&gt;OnlineClass</title>
<path fill="none" stroke="black" d="M297.89,-144.05C295.88,-136.26 293.46,-126.82 291.21,-118.08"/>
<polygon fill="black" stroke="black" points="294.57,-117.09 288.69,-108.28 287.79,-118.83 294.57,-117.09"/>
</g>
<!-- SES&#45;&gt;OnlineClass -->
<g id="edge8" class="edge">
<title>SES&#45;&gt;OnlineClass</title>
<path fill="none" stroke="black" d="M151.13,-151.12C175.22,-140.24 214.48,-122.51 244.13,-109.12"/>
<polygon fill="black" stroke="black" points="245.72,-112.24 253.39,-104.93 242.84,-105.86 245.72,-112.24"/>
</g>
<!-- Location -->
<g id="node6" class="node">
<title>Location</title>
<ellipse fill="none" stroke="black" cx="42.25" cy="-162" rx="42.49" ry="18"/>
<text text-anchor="middle" x="42.25" y="-158.3" font-family="Times New Roman,serif" font-size="14.00">Location</text>
</g>
<!-- Location&#45;&gt;OnlineClass -->
<g id="edge6" class="edge">
<title>Location&#45;&gt;OnlineClass</title>
<path fill="none" stroke="black" d="M74.27,-150.05C80.54,-147.98 87.09,-145.88 93.25,-144 140.38,-129.62 194.55,-114.74 233.13,-104.42"/>
<polygon fill="black" stroke="black" points="234.33,-107.73 243.09,-101.77 232.52,-100.96 234.33,-107.73"/>
</g>
<!-- Academics -->
<g id="node7" class="node">
<title>Academics</title>
<ellipse fill="none" stroke="black" cx="445.25" cy="-234" rx="50.09" ry="18"/>
<text text-anchor="middle" x="445.25" y="-230.3" font-family="Times New Roman,serif" font-size="14.00">Academics</text>
</g>
<!-- Academics&#45;&gt;Dropout -->
<g id="edge10" class="edge">
<title>Academics&#45;&gt;Dropout</title>
<path fill="none" stroke="black" d="M442.16,-215.89C436.31,-185.73 422.02,-121.63 398.25,-72 393.52,-62.13 387.03,-52.09 380.8,-43.44"/>
<polygon fill="black" stroke="black" points="383.52,-41.24 374.73,-35.32 377.91,-45.43 383.52,-41.24"/>
</g>
<!-- Academics&#45;&gt;WorkHours -->
<g id="edge9" class="edge">
<title>Academics&#45;&gt;WorkHours</title>
<path fill="none" stroke="black" d="M416.65,-219C394.78,-208.3 364.4,-193.43 340.45,-181.7"/>
<polygon fill="black" stroke="black" points="341.8,-178.47 331.28,-177.21 338.72,-184.75 341.8,-178.47"/>
</g>
<!-- Demographics -->
<g id="node8" class="node">
<title>Demographics</title>
<ellipse fill="none" stroke="black" cx="315.25" cy="-234" rx="62.29" ry="18"/>
<text text-anchor="middle" x="315.25" y="-230.3" font-family="Times New Roman,serif" font-size="14.00">Demographics</text>
</g>
<!-- Demographics&#45;&gt;OnlineClass -->
<g id="edge12" class="edge">
<title>Demographics&#45;&gt;OnlineClass</title>
<path fill="none" stroke="black" d="M335.95,-216.71C346.27,-207.25 357.71,-194.36 363.25,-180 369,-165.07 370.78,-158.12 363.25,-144 355.27,-129.04 340.98,-117.55 326.72,-109.16"/>
<polygon fill="black" stroke="black" points="328.36,-106.06 317.91,-104.33 325,-112.2 328.36,-106.06"/>
</g>
<!-- Demographics&#45;&gt;Dropout -->
<g id="edge11" class="edge">
<title>Demographics&#45;&gt;Dropout</title>
<path fill="none" stroke="black" d="M343.34,-217.73C356.87,-208.71 371.76,-195.93 379.25,-180 399.86,-136.18 384.6,-78.47 372.4,-45.38"/>
<polygon fill="black" stroke="black" points="375.62,-44.01 368.75,-35.94 369.09,-46.53 375.62,-44.01"/>
</g>
<!-- Demographics&#45;&gt;WorkHours -->
<g id="edge13" class="edge">
<title>Demographics&#45;&gt;WorkHours</title>
<path fill="none" stroke="black" d="M312.03,-215.7C310.6,-207.98 308.88,-198.71 307.28,-190.11"/>
<polygon fill="black" stroke="black" points="310.69,-189.3 305.42,-180.1 303.81,-190.58 310.69,-189.3"/>
</g>
<!-- U1 -->
<g id="node9" class="node">
<title>U1</title>
<ellipse fill="none" stroke="black" stroke-dasharray="5,2" cx="376.25" cy="-306" rx="27" ry="18"/>
<text text-anchor="middle" x="376.25" y="-302.3" font-family="Times New Roman,serif" font-size="14.00">U1</text>
</g>
<!-- U1&#45;&gt;Academics -->
<g id="edge14" class="edge">
<title>U1&#45;&gt;Academics</title>
<path fill="none" stroke="black" d="M390.54,-290.5C399.63,-281.28 411.6,-269.14 422.02,-258.56"/>
<polygon fill="black" stroke="black" points="424.75,-260.78 429.28,-251.2 419.77,-255.86 424.75,-260.78"/>
</g>
<!-- U1&#45;&gt;Demographics -->
<g id="edge15" class="edge">
<title>U1&#45;&gt;Demographics</title>
<path fill="none" stroke="black" d="M363.31,-290.15C355.58,-281.29 345.57,-269.8 336.69,-259.61"/>
<polygon fill="black" stroke="black" points="339.09,-257.03 329.88,-251.79 333.81,-261.63 339.09,-257.03"/>
</g>
<!-- U4 -->
<g id="node10" class="node">
<title>U4</title>
<ellipse fill="none" stroke="black" stroke-dasharray="5,2" cx="254.25" cy="-306" rx="27" ry="18"/>
<text text-anchor="middle" x="254.25" y="-302.3" font-family="Times New Roman,serif" font-size="14.00">U4</text>
</g>
<!-- U4&#45;&gt;SES -->
<g id="edge16" class="edge">
<title>U4&#45;&gt;SES</title>
<path fill="none" stroke="black" d="M231.55,-295.93C212.21,-287.2 184.84,-272.32 167.25,-252 151.75,-234.1 141.8,-208.94 135.99,-189.94"/>
<polygon fill="black" stroke="black" points="139.29,-188.75 133.17,-180.1 132.56,-190.68 139.29,-188.75"/>
</g>
<!-- U4&#45;&gt;Demographics -->
<g id="edge17" class="edge">
<title>U4&#45;&gt;Demographics</title>
<path fill="none" stroke="black" d="M267.18,-290.15C274.91,-281.29 284.92,-269.8 293.8,-259.61"/>
<polygon fill="black" stroke="black" points="296.68,-261.63 300.62,-251.79 291.41,-257.03 296.68,-261.63"/>
</g>
<!-- U5 -->
<g id="node11" class="node">
<title>U5</title>
<ellipse fill="none" stroke="black" stroke-dasharray="5,2" cx="67.25" cy="-234" rx="27" ry="18"/>
<text text-anchor="middle" x="67.25" y="-230.3" font-family="Times New Roman,serif" font-size="14.00">U5</text>
</g>
<!-- U5&#45;&gt;SES -->
<g id="edge18" class="edge">
<title>U5&#45;&gt;SES</title>
<path fill="none" stroke="black" d="M80.39,-218.15C88.78,-208.69 99.81,-196.24 109.26,-185.56"/>
<polygon fill="black" stroke="black" points="112.11,-187.63 116.12,-177.82 106.87,-182.99 112.11,-187.63"/>
</g>
<!-- U5&#45;&gt;Location -->
<g id="edge19" class="edge">
<title>U5&#45;&gt;Location</title>
<path fill="none" stroke="black" d="M61.32,-216.41C58.47,-208.42 54.98,-198.64 51.76,-189.64"/>
<polygon fill="black" stroke="black" points="54.96,-188.2 48.3,-179.96 48.37,-190.55 54.96,-188.2"/>
</g>
</g>
</svg>
