<?xml version="1.0" encoding="UTF-8" standalone="no"?>
<!DOCTYPE svg PUBLIC "-//W3C//DTD SVG 1.1//EN"
 "http://www.w3.org/Graphics/SVG/1.1/DTD/svg11.dtd">
<!-- Generated by graphviz version 2.50.0 (0)
 -->
<!-- Pages: 1 -->
<svg width="245pt" height="188pt"
 viewBox="0.00 0.00 244.55 188.00" xmlns="http://www.w3.org/2000/svg" xmlns:xlink="http://www.w3.org/1999/xlink">
<g id="graph0" class="graph" transform="scale(1 1) rotate(0) translate(4 184)">
<polygon fill="white" stroke="transparent" points="-4,4 -4,-184 240.55,-184 240.55,4 -4,4"/>
<!-- T -->
<g id="node1" class="node">
<title>T</title>
<ellipse fill="none" stroke="black" cx="55" cy="-162" rx="27" ry="18"/>
<text text-anchor="middle" x="55" y="-158.3" font-family="Times New Roman,serif" font-size="14.00">T</text>
</g>
<!-- X -->
<g id="node2" class="node">
<title>X</title>
<ellipse fill="lightgrey" stroke="black" cx="27" cy="-90" rx="27" ry="18"/>
<text text-anchor="middle" x="27" y="-86.3" font-family="Times New Roman,serif" font-size="14.00">X</text>
</g>
<!-- T&#45;&gt;X -->
<g id="edge1" class="edge">
<title>T&#45;&gt;X</title>
<path fill="none" stroke="black" d="M48.36,-144.41C45.09,-136.22 41.06,-126.14 37.38,-116.95"/>
<polygon fill="black" stroke="black" points="40.55,-115.45 33.59,-107.47 34.05,-118.05 40.55,-115.45"/>
</g>
<!-- Y -->
<g id="node3" class="node">
<title>Y</title>
<ellipse fill="none" stroke="black" cx="55" cy="-18" rx="27" ry="18"/>
<text text-anchor="middle" x="55" y="-14.3" font-family="Times New Roman,serif" font-size="14.00">Y</text>
</g>
<!-- T&#45;&gt;Y -->
<g id="edge2" class="edge">
<title>T&#45;&gt;Y</title>
<path fill="none" stroke="black" d="M58.25,-143.89C60.05,-133.54 62.09,-120.06 63,-108 64.2,-92.04 64.2,-87.96 63,-72 62.36,-63.52 61.16,-54.34 59.88,-46.04"/>
<polygon fill="black" stroke="black" points="63.32,-45.41 58.25,-36.11 56.42,-46.55 63.32,-45.41"/>
</g>
<!-- X&#45;&gt;Y -->
<g id="edge3" class="edge">
<title>X&#45;&gt;Y</title>
<path fill="none" stroke="black" d="M33.64,-72.41C36.91,-64.22 40.94,-54.14 44.62,-44.95"/>
<polygon fill="black" stroke="black" points="47.95,-46.05 48.41,-35.47 41.45,-43.45 47.95,-46.05"/>
</g>
<!-- Educ -->
<g id="node4" class="node">
<title>Educ</title>
<ellipse fill="none" stroke="black" cx="206" cy="-162" rx="28.7" ry="18"/>
<text text-anchor="middle" x="206" y="-158.3" font-family="Times New Roman,serif" font-size="14.00">Educ</text>
</g>
<!-- WhiteCollar -->
<g id="node5" class="node">
<title>WhiteCollar</title>
<ellipse fill="lightgrey" stroke="black" cx="165" cy="-90" rx="54.69" ry="18"/>
<text text-anchor="middle" x="165" y="-86.3" font-family="Times New Roman,serif" font-size="14.00">WhiteCollar</text>
</g>
<!-- Educ&#45;&gt;WhiteCollar -->
<g id="edge4" class="edge">
<title>Educ&#45;&gt;WhiteCollar</title>
<path fill="none" stroke="black" d="M196.49,-144.76C191.66,-136.53 185.69,-126.32 180.24,-117.02"/>
<polygon fill="black" stroke="black" points="183.1,-114.98 175.03,-108.12 177.06,-118.52 183.1,-114.98"/>
</g>
<!-- Wage -->
<g id="node6" class="node">
<title>Wage</title>
<ellipse fill="none" stroke="black" cx="206" cy="-18" rx="30.59" ry="18"/>
<text text-anchor="middle" x="206" y="-14.3" font-family="Times New Roman,serif" font-size="14.00">Wage</text>
</g>
<!-- Educ&#45;&gt;Wage -->
<g id="edge5" class="edge">
<title>Educ&#45;&gt;Wage</title>
<path fill="none" stroke="black" d="M215.07,-144.87C220.28,-134.65 226.31,-120.96 229,-108 232.25,-92.33 232.25,-87.67 229,-72 227.09,-62.82 223.52,-53.29 219.74,-44.87"/>
<polygon fill="black" stroke="black" points="222.78,-43.11 215.3,-35.6 216.46,-46.13 222.78,-43.11"/>
</g>
<!-- WhiteCollar&#45;&gt;Wage -->
<g id="edge6" class="edge">
<title>WhiteCollar&#45;&gt;Wage</title>
<path fill="none" stroke="black" d="M174.92,-72.05C179.83,-63.68 185.85,-53.4 191.28,-44.13"/>
<polygon fill="black" stroke="black" points="194.41,-45.7 196.45,-35.31 188.37,-42.17 194.41,-45.7"/>
</g>
</g>
</svg>
